<svg viewBox="0 0 723 84" fill="none" xmlns="http://www.w3.org/2000/svg">
<path d="M7.88 45V11.4H20.648C28.424 11.4 32.936 14.664 32.936 20.28C32.936 24.504 30.44 26.904 26.6 27.72C31.064 28.296 34.136 30.648 34.136 35.448C34.136 41.304 29.528 45 21.272 45H7.88ZM20.84 17.064H15.08V25.224H20.84C23.912 25.224 25.736 23.64 25.736 21.144C25.736 18.648 23.96 17.064 20.84 17.064ZM21.32 30.792H15.08V39.288H21.32C24.776 39.288 26.744 37.704 26.744 35.112C26.744 32.376 24.728 30.792 21.32 30.792ZM38.4425 45V11.4H52.1225C59.5145 11.4 64.4585 15.768 64.4585 22.584C64.4585 26.904 62.2025 30.36 58.6985 32.04L65.3225 45H57.3545L51.6905 33.72H45.6425V45H38.4425ZM51.5465 17.4H45.6425V27.72H51.5465C54.9545 27.72 57.1145 25.704 57.1145 22.584C57.1145 19.416 54.9545 17.4 51.5465 17.4ZM69.0519 45V11.4H91.6119V17.592H76.2519V25.128H88.7319V31.032H76.2519V38.808H92.1399V45H69.0519ZM101.226 45H93.7858L106.074 11.4H114.714L126.906 45H119.178L116.586 37.656H103.818L101.226 45ZM110.154 19.08L105.738 31.848H114.618L110.154 19.08ZM129.989 45V11.4H137.189V26.616L150.629 11.4H159.365L146.933 25.416L160.181 45H151.541L141.845 30.696L137.189 35.976V45H129.989ZM174.661 45V11.4H184.117L193.429 36.072L202.453 11.4H211.717V45H204.853V22.488L196.117 45H190.261L181.525 22.488V45H174.661ZM226.914 32.52L214.578 11.4H222.978L230.514 25.176L238.434 11.4H246.45L234.114 32.52V45H226.914V32.52ZM259.895 33.96L266.951 34.056C267.191 37.32 269.783 39.576 273.911 39.576C277.223 39.576 279.671 38.136 279.671 35.496C279.671 32.664 276.935 32.088 271.319 30.984C265.655 29.928 260.663 28.104 260.663 21.288C260.663 15.336 265.607 11.112 273.191 11.112C281.111 11.112 286.151 15.24 286.247 21.672H279.191C278.855 18.84 276.695 16.872 273.191 16.872C270.119 16.872 267.911 18.168 267.911 20.76C267.911 23.496 270.551 24.072 276.119 25.128C281.879 26.184 286.967 27.912 286.919 34.68C286.871 40.968 281.687 45.288 273.815 45.288C265.271 45.288 259.943 40.776 259.895 33.96ZM291.239 45V11.4H298.439V45H291.239ZM302.21 17.592V11.4H328.85V17.592H319.106V45H311.906V17.592H302.21ZM332.677 45V11.4H355.237V17.592H339.877V25.128H352.357V31.032H339.877V38.808H355.765V45H332.677ZM386.693 45.288C376.709 45.288 370.661 38.52 370.661 28.2C370.661 17.88 376.949 11.112 387.125 11.112C395.093 11.112 400.709 16.104 401.573 23.4H394.277C393.413 19.656 390.725 17.208 386.741 17.208C381.269 17.208 378.005 21.72 378.005 28.2C378.005 34.632 381.221 39.192 386.645 39.192C390.725 39.192 393.413 36.744 394.277 33H401.525C400.709 40.296 394.901 45.288 386.693 45.288ZM437.254 28.2C437.254 37.992 430.486 45.288 420.598 45.288C410.71 45.288 403.942 37.992 403.942 28.2C403.942 18.408 410.71 11.112 420.598 11.112C430.486 11.112 437.254 18.408 437.254 28.2ZM411.286 28.2C411.286 34.536 414.934 39.192 420.598 39.192C426.214 39.192 429.862 34.536 429.862 28.2C429.862 21.864 426.214 17.208 420.598 17.208C414.934 17.208 411.286 21.864 411.286 28.2ZM441.614 45V11.4H451.07L460.382 36.072L469.406 11.4H478.67V45H471.806V22.488L463.07 45H457.214L448.478 22.488V45H441.614ZM484.411 45V11.4H491.611V45H484.411ZM504.358 45H497.302V11.4H503.83L518.086 32.568V11.4H525.19V45H518.614L504.358 23.832V45ZM545.551 45.288C535.951 45.288 529.567 38.52 529.567 28.2C529.567 17.88 535.903 11.112 546.223 11.112C554.335 11.112 560.047 16.104 560.911 23.352H553.711C552.847 19.656 550.159 17.208 546.031 17.208C540.415 17.208 536.911 21.72 536.911 28.2C536.911 34.68 540.271 39.192 546.031 39.192C549.871 39.192 553.759 37.176 554.431 32.472V32.04H546.079V26.328H561.103V45H556.063L555.343 40.968C553.567 43.32 550.303 45.288 545.551 45.288ZM577.427 33.96L584.483 34.056C584.723 37.32 587.315 39.576 591.443 39.576C594.755 39.576 597.203 38.136 597.203 35.496C597.203 32.664 594.467 32.088 588.851 30.984C583.187 29.928 578.195 28.104 578.195 21.288C578.195 15.336 583.139 11.112 590.723 11.112C598.643 11.112 603.683 15.24 603.779 21.672H596.723C596.387 18.84 594.227 16.872 590.723 16.872C587.651 16.872 585.443 18.168 585.443 20.76C585.443 23.496 588.083 24.072 593.651 25.128C599.411 26.184 604.499 27.912 604.451 34.68C604.403 40.968 599.219 45.288 591.347 45.288C582.803 45.288 577.475 40.776 577.427 33.96ZM640.739 28.2C640.739 37.992 633.971 45.288 624.083 45.288C614.195 45.288 607.427 37.992 607.427 28.2C607.427 18.408 614.195 11.112 624.083 11.112C633.971 11.112 640.739 18.408 640.739 28.2ZM614.771 28.2C614.771 34.536 618.419 39.192 624.083 39.192C629.699 39.192 633.347 34.536 633.347 28.2C633.347 21.864 629.699 17.208 624.083 17.208C618.419 17.208 614.771 21.864 614.771 28.2ZM677.067 28.2C677.067 37.992 670.299 45.288 660.411 45.288C650.523 45.288 643.755 37.992 643.755 28.2C643.755 18.408 650.523 11.112 660.411 11.112C670.299 11.112 677.067 18.408 677.067 28.2ZM651.099 28.2C651.099 34.536 654.747 39.192 660.411 39.192C666.027 39.192 669.675 34.536 669.675 28.2C669.675 21.864 666.027 17.208 660.411 17.208C654.747 17.208 651.099 21.864 651.099 28.2ZM688.483 45H681.427V11.4H687.955L702.211 32.568V11.4H709.315V45H702.739L688.483 23.832V45Z" fill="#333333"/>
<rect y="60" width="723" height="24" fill="#EF5DA8"/>
</svg>
