<svg width="2516" height="731" viewBox="0 0 2516 731" fill="none" xmlns="http://www.w3.org/2000/svg">
<path d="M278.564 480.419C278.394 483.153 281.812 485.033 287.964 486.229C344.702 496.825 388.794 518.529 414.429 542.626C421.436 530.321 423.145 506.396 423.145 459.911C423.145 372.753 417.163 365.062 382.3 365.062C347.437 365.062 341.455 372.753 341.455 459.911C341.455 465.893 341.455 471.532 341.626 476.83C341.626 485.033 335.815 485.033 332.739 484.179C324.365 481.957 307.446 475.634 286.426 475.634C281.128 475.634 278.394 477.172 278.564 480.419ZM155.518 555.785C126.807 555.785 99.6338 547.753 77.417 532.543C79.4678 527.929 81.6895 523.485 84.4238 519.555C86.6455 516.308 89.3799 516.649 91.0889 519.896C104.59 543.822 125.781 554.76 155.518 554.76C197.046 554.76 228.491 525.536 242.334 489.135C223.706 474.779 201.318 465.38 172.778 465.38C109.888 465.209 58.96 514.257 58.96 574.926C58.96 634.398 107.153 682.592 166.626 682.592C223.877 682.592 274.121 637.987 274.121 581.42C274.121 573.559 273.438 565.526 271.216 558.349C270.532 555.785 268.994 554.076 267.627 553.051C266.772 552.538 265.918 552.196 265.063 552.025C261.304 551.684 256.86 554.076 252.417 558.007C250.024 560.229 246.777 561.083 243.53 560.741C241.821 560.399 240.112 559.887 238.574 558.861C233.105 555.102 232.08 547.582 235.84 541.942C238.745 537.67 244.043 535.106 249.854 535.79C253.271 536.132 256.348 537.157 259.253 539.208C264.209 542.626 268.994 548.607 272.241 558.007C274.805 565.185 275.146 573.559 275.146 581.42C275.146 638.5 224.219 683.617 166.626 683.617C106.812 683.617 58.1055 634.911 57.9346 574.926C57.9346 557.665 62.207 541.259 69.5557 526.562C39.8193 502.294 20.5078 463.5 20.5078 411.718C20.5078 326.269 76.2207 266.796 156.372 266.454C166.455 266.454 176.367 268.505 185.767 270.897C188.33 271.581 190.723 272.094 193.115 272.777C195.679 273.29 198.071 273.974 200.293 274.486C206.274 275.854 211.743 276.708 216.87 276.708C225.586 276.708 233.105 274.145 239.258 266.454L240.112 266.796C236.011 271.752 233.789 280.468 233.789 292.772C233.789 310.717 238.574 336.181 249.341 369.677H248.828C228.491 307.299 189.868 267.479 156.372 267.479C95.1904 267.479 71.7773 307.47 71.7773 411.718C71.7773 451.366 75.708 482.128 84.082 504.687C105.273 479.906 137.061 464.184 172.778 464.354C297.705 464.354 305.566 641.063 386.572 641.063C416.992 641.063 438.184 619.359 438.184 588.085C438.184 550.487 379.053 503.832 287.964 486.742C281.47 485.546 277.881 483.495 278.052 480.419C277.881 476.83 280.786 475.121 286.426 475.121C285.742 470.165 285.4 465.209 285.4 459.911C285.4 403.856 323.34 364.037 382.3 364.037C441.26 364.037 479.199 403.856 479.199 459.911C479.199 502.636 457.153 535.961 420.923 549.12C432.886 562.108 439.209 575.609 439.209 588.085C439.209 619.872 417.676 642.089 386.572 642.089C323.34 642.089 304.541 538.183 243.018 489.647C228.662 526.562 196.704 555.785 155.518 555.785ZM505.347 551V550.658C523.291 546.557 535.596 548.266 535.596 535.106V388.476C535.596 375.316 523.462 376 496.46 371.898C404.517 354.809 331.201 291.234 331.201 190.233C331.201 88.0361 420.752 1.39062 526.367 1.39062C773.999 1.39062 745.801 330.028 909.351 330.028C958.74 330.028 998.73 289.867 998.56 240.648C998.73 191.43 958.74 151.439 909.351 151.61C884.229 151.61 861.328 161.693 845.264 178.783C838.77 185.79 844.58 192.113 853.638 195.873C860.645 198.778 863.721 209.545 856.201 215.355C849.194 220.824 839.795 216.894 835.864 210.399C833.472 206.469 831.079 196.557 837.061 187.157C838.94 184.252 841.675 180.834 844.58 178.1C860.986 161.181 883.887 150.585 909.351 150.585C959.253 150.414 999.756 190.746 999.585 240.648C999.756 290.38 959.253 331.054 909.351 331.054C744.775 331.054 772.803 2.41602 526.367 2.41602C421.265 2.41602 332.227 88.5488 332.227 190.233C332.227 290.209 405.2 354.467 496.46 371.557C508.936 373.095 519.873 373.778 529.614 373.949C555.249 373.949 572.168 368.993 583.276 360.277L583.447 360.448V394.286C596.948 376.684 614.893 367.797 636.597 367.797C665.991 367.797 687.012 376.854 698.462 394.628C709.912 376.854 728.027 367.797 752.124 367.797C788.013 367.797 814.502 387.621 814.502 414.281V535.106C814.502 548.266 826.807 546.557 844.751 550.658V551C826.807 547.582 808.862 546.044 790.576 546.044C772.29 546.044 754.346 547.582 736.401 551V550.658C754.346 546.557 766.65 548.266 766.65 535.106V414.281C766.65 385.229 758.447 370.531 742.554 370.531C725.977 370.531 706.836 381.64 698.975 395.312V535.106C698.975 548.266 711.279 546.557 729.224 550.658V551C711.279 547.582 693.335 546.044 675.049 546.044C656.763 546.044 638.818 547.582 620.874 551V550.658C638.818 546.557 651.123 548.266 651.123 535.106V414.281C651.123 385.229 642.92 370.531 627.026 370.531C612.329 370.531 593.188 381.64 583.447 395.312V535.106C583.447 548.266 595.752 546.557 613.696 550.658V551C595.752 547.582 577.808 546.044 559.521 546.044C541.235 546.044 523.291 547.582 505.347 551ZM916.699 329.345C898.926 329.345 884.57 314.989 884.57 296.874C884.57 279.271 898.926 264.574 916.699 264.574C934.644 264.574 949.341 279.271 949.341 296.874C949.341 314.989 934.644 329.345 916.699 329.345ZM862.354 551V550.658C878.931 546.898 890.552 548.095 892.432 538.012C892.432 537.157 892.603 536.132 892.603 535.106V388.305C892.603 375.146 880.469 376 853.467 371.898V371.557C865.942 373.095 877.051 373.778 886.792 373.778C912.427 373.778 929.175 368.822 940.283 360.277H940.454V535.448C940.454 536.815 940.625 538.183 940.967 539.037C943.359 548.095 954.81 547.069 970.703 550.658V551C952.246 547.753 934.131 546.044 916.016 546.044C897.9 546.044 879.956 547.753 862.354 551ZM988.818 551V550.658C1006.76 546.557 1019.07 548.266 1019.07 535.106V388.476C1019.07 375.316 1006.93 376 979.932 371.898V371.557C992.407 373.095 1003.34 373.778 1013.09 373.949C1038.72 373.949 1055.47 368.993 1066.75 360.277L1066.92 360.448V398.046C1084.18 377.025 1101.27 367.797 1123.49 367.797C1159.38 367.797 1185.86 387.621 1185.86 414.281V535.106C1185.86 548.266 1198.17 546.557 1216.11 550.658V551C1198.17 547.582 1180.22 546.044 1161.94 546.044C1143.65 546.044 1125.71 547.582 1107.76 551V550.658C1125.71 546.557 1138.01 548.266 1138.01 535.106V414.281C1138.01 388.988 1126.56 371.044 1111.01 371.044C1097.68 371.044 1082.13 380.956 1066.92 399.071V535.106C1066.92 548.266 1079.22 546.557 1097.17 550.658V551C1079.22 547.582 1061.28 546.044 1042.99 546.044C1024.71 546.044 1006.76 547.582 988.818 551ZM1305.49 646.361C1258.15 646.361 1222.95 614.574 1222.95 572.021C1222.95 542.455 1240.04 516.991 1264.82 505.028L1257.47 500.756C1238.84 491.015 1237.99 483.324 1237.99 480.419C1237.99 471.361 1246.02 467.431 1263.96 467.431H1294.21C1307.37 467.431 1312.67 456.322 1312.67 426.757V389.33C1312.5 372.069 1307.03 365.062 1294.9 365.062C1282.08 365.062 1276.95 372.069 1276.95 389.33V451.879C1276.95 456.493 1272.85 458.886 1266.87 458.886C1246.7 458.886 1229.1 440.087 1229.1 418.383C1229.1 385.57 1255.25 364.037 1294.9 364.037C1301.22 364.037 1304.98 360.79 1323.61 339.086C1338.82 321.483 1349.76 314.306 1361.72 314.306C1375.9 314.306 1387.35 323.705 1387.35 336.01V336.352C1387.35 347.802 1377.95 357.201 1366.85 357.201C1355.4 357.201 1346.17 347.802 1346.17 336.352C1346.17 325.243 1355.4 316.015 1366.85 316.015C1367.53 316.015 1368.04 316.015 1368.73 316.186C1366.5 315.673 1364.11 315.331 1361.72 315.331C1350.27 315.331 1339.5 322.338 1324.46 339.599C1310.11 356.005 1304.3 362.157 1299.68 364.208C1336.6 365.746 1360.69 386.938 1360.69 418.383C1360.69 448.803 1340.7 468.456 1309.77 468.456H1263.96C1246.7 468.456 1239.01 472.216 1239.01 480.419C1239.01 486.059 1245.34 489.647 1255.42 489.647H1313.01C1363.26 489.647 1396.24 519.384 1396.24 558.69C1396.24 605.175 1353.69 646.361 1305.49 646.361ZM1223.97 572.021C1223.97 614.062 1258.84 645.336 1305.49 645.336C1352.49 645.336 1388.21 603.979 1388.21 584.838C1388.21 579.369 1387.18 575.438 1377.27 569.799L1266.02 505.712C1241.06 517.333 1223.97 542.626 1223.97 572.021ZM1764.01 480.419C1763.84 483.153 1767.26 485.033 1773.41 486.229C1830.15 496.825 1874.24 518.529 1899.88 542.626C1906.88 530.321 1908.59 506.396 1908.59 459.911C1908.59 372.753 1902.61 365.062 1867.75 365.062C1832.89 365.062 1826.9 372.753 1826.9 459.911C1826.9 465.893 1826.9 471.532 1827.08 476.83C1827.08 485.033 1821.26 485.033 1818.19 484.179C1809.81 481.957 1792.9 475.634 1771.88 475.634C1766.58 475.634 1763.84 477.172 1764.01 480.419ZM1652.08 683.617C1592.26 683.617 1543.55 634.911 1543.38 574.926C1543.55 513.744 1595 464.184 1658.23 464.354C1679.93 464.354 1698.22 469.652 1713.94 478.539C1709.5 467.089 1699.93 458.373 1686.25 453.588L1581.32 416.332C1552.1 405.907 1533.81 379.931 1533.81 348.485C1533.81 305.761 1570.9 260.985 1625.07 260.985C1646.44 260.985 1671.56 271.581 1683.86 271.581C1690.36 271.581 1696 269.018 1701.29 261.327L1701.81 261.669C1699.58 269.188 1698.39 280.126 1698.39 293.456C1698.39 312.768 1700.78 337.206 1705.74 363.183H1705.22C1690.7 295.849 1654.3 262.011 1625.07 262.011C1590.04 262.011 1556.03 282.689 1556.03 308.495C1556.03 331.908 1575.68 356.688 1601.83 366.259L1670.87 391.723C1706.59 404.882 1727.95 432.396 1727.95 465.551C1727.95 473.07 1727.27 480.077 1725.9 486.4C1790.16 533.739 1808.96 641.063 1872.02 641.063C1902.44 641.063 1923.63 619.359 1923.63 588.085C1923.63 550.487 1864.5 503.832 1773.41 486.742C1766.92 485.546 1763.33 483.495 1763.5 480.419C1763.33 476.83 1766.24 475.121 1771.88 475.121C1771.19 470.165 1770.85 465.209 1770.85 459.911C1770.85 403.856 1808.79 364.037 1867.75 364.037C1926.71 364.037 1964.65 403.856 1964.65 459.911C1964.65 502.636 1942.6 535.961 1906.37 549.12C1918.33 562.108 1924.66 575.609 1924.66 588.085C1924.66 619.872 1903.12 642.089 1872.02 642.089C1789.48 642.089 1782.64 465.38 1658.23 465.38C1595.34 465.209 1544.41 514.257 1544.41 574.926C1544.41 634.398 1592.6 682.592 1652.08 682.592C1709.33 682.592 1759.57 637.987 1759.57 581.42C1759.57 573.559 1758.89 565.526 1756.67 558.349C1755.98 555.785 1754.44 554.076 1753.08 553.051C1752.22 552.538 1751.37 552.196 1750.51 552.025C1746.75 551.684 1742.31 554.076 1737.87 558.007C1735.47 560.229 1732.23 561.083 1728.98 560.741C1727.27 560.399 1725.56 559.887 1724.02 558.861C1718.55 555.102 1717.53 547.582 1721.29 541.942C1724.19 537.67 1729.49 535.106 1735.3 535.79C1738.72 536.132 1741.8 537.157 1744.7 539.208C1749.66 542.626 1754.44 548.607 1757.69 558.007C1760.25 565.185 1760.6 573.559 1760.6 581.42C1760.6 638.5 1709.67 683.617 1652.08 683.617ZM2221.68 551V550.658C2239.79 546.557 2251.93 548.266 2251.93 535.106V388.476C2251.93 375.316 2239.79 376 2212.79 371.898V371.557C2225.27 373.095 2236.21 373.778 2245.95 373.949C2271.75 373.949 2288.5 368.993 2299.61 360.277L2299.78 360.448V398.046C2317.04 377.025 2334.13 367.797 2356.35 367.797C2392.24 367.797 2418.73 387.621 2418.73 414.281V512.377C2473.07 520.922 2514.77 566.552 2514.94 621.581C2514.77 681.566 2466.06 730.272 2406.25 730.272C2348.66 730.272 2297.9 685.155 2297.9 628.075C2297.9 620.214 2298.24 611.84 2300.63 604.662C2303.88 595.263 2308.84 589.11 2313.79 585.692C2316.53 583.812 2319.6 582.787 2323.02 582.274C2328.83 581.591 2334.13 584.154 2337.04 588.427C2340.97 594.237 2339.77 601.586 2334.3 605.517C2332.76 606.542 2331.23 607.055 2329.35 607.226C2326.1 607.567 2322.85 606.713 2320.46 604.662C2316.02 600.731 2311.57 598.339 2307.81 598.681C2306.96 598.852 2306.1 599.022 2305.42 599.535C2303.88 600.561 2302.34 602.27 2301.66 605.004C2299.61 612.182 2298.93 620.214 2298.93 628.075C2298.93 684.643 2349 729.247 2406.25 729.247C2465.72 729.247 2513.92 681.054 2513.92 621.581C2513.92 560.912 2462.99 511.864 2400.1 511.864C2275.68 511.864 2277.05 723.949 2153.15 723.949C2093.16 723.949 2044.63 676.269 2044.8 617.479C2044.8 592.357 2053 569.97 2068.04 551L2067.36 550.829C2028.22 538.354 2004.47 504.174 2004.47 459.911C2004.47 403.856 2042.41 364.037 2101.37 364.037C2160.33 364.037 2198.27 403.856 2198.27 459.911C2198.27 465.209 2197.92 470.165 2197.24 475.121C2202.88 475.121 2205.79 476.83 2205.62 480.419C2205.79 483.495 2202.2 485.375 2195.7 486.571C2104.61 503.661 2045.83 550.829 2045.83 617.479C2045.65 675.585 2093.68 722.924 2153.15 722.924C2242.87 722.924 2266.63 610.473 2321.14 549.462C2306.1 547.069 2291.06 546.044 2275.85 546.044C2257.57 546.044 2239.62 547.582 2221.68 551ZM2071.8 546.215L2071.97 546.386C2097.78 517.162 2140.84 496.483 2195.7 486.229C2201.86 485.033 2205.27 483.153 2205.1 480.419C2205.27 477.172 2202.54 475.634 2197.24 475.634C2176.22 475.634 2159.3 481.957 2150.93 484.179C2147.85 485.033 2142.04 485.033 2142.04 476.83C2142.21 471.532 2142.21 465.893 2142.21 459.911C2142.21 372.753 2136.23 365.062 2101.37 365.062C2066.5 365.062 2060.52 372.753 2060.52 459.911C2060.52 511.864 2062.74 535.619 2071.8 546.215ZM2299.78 535.106C2299.78 546.215 2308.5 546.728 2321.48 548.949C2335.33 533.397 2351.39 521.264 2370.87 515.111V414.281C2370.87 388.988 2359.42 371.044 2343.87 371.044C2330.54 371.044 2314.99 380.956 2299.78 399.071V535.106ZM2340.62 551V550.658C2358.74 546.557 2370.87 548.266 2370.87 535.106V524.511C2383.86 521.776 2396.85 520.58 2410.35 520.751C2417.02 520.922 2418.73 523.827 2418.73 528.441V535.106C2418.73 548.266 2431.03 546.557 2448.97 550.658V551C2431.2 547.582 2413.09 546.044 2394.8 546.044C2376.51 546.044 2358.57 547.582 2340.62 551Z" fill="#363636"/>
<path d="M278.564 480.419L279.063 480.45L279.065 480.421L279.064 480.393L278.564 480.419ZM287.964 486.229L287.868 486.72L287.872 486.721L287.964 486.229ZM414.429 542.626L414.086 542.99L414.549 543.425L414.863 542.873L414.429 542.626ZM341.626 476.83H342.126V476.822L342.126 476.814L341.626 476.83ZM332.739 484.179L332.873 483.697L332.867 483.695L332.739 484.179ZM77.417 532.543L76.9601 532.34L76.791 532.72L77.1345 532.956L77.417 532.543ZM84.4238 519.555L84.8343 519.84L84.8365 519.837L84.4238 519.555ZM91.0889 519.896L90.6464 520.129L90.6498 520.136L90.6534 520.142L91.0889 519.896ZM242.334 489.135L242.801 489.312L242.933 488.965L242.639 488.739L242.334 489.135ZM172.778 465.38L172.777 465.88H172.778V465.38ZM271.216 558.349L270.733 558.477L270.735 558.487L270.738 558.496L271.216 558.349ZM267.627 553.051L267.927 552.651L267.906 552.635L267.884 552.622L267.627 553.051ZM265.063 552.025L265.162 551.535L265.135 551.53L265.109 551.527L265.063 552.025ZM252.417 558.007L252.086 557.632L252.077 557.64L252.417 558.007ZM243.53 560.741L243.432 561.232L243.455 561.236L243.478 561.238L243.53 560.741ZM238.574 558.861L238.291 559.273L238.297 559.277L238.574 558.861ZM235.84 541.942L235.426 541.661L235.424 541.665L235.84 541.942ZM249.854 535.79L249.795 536.287L249.804 536.288L249.854 535.79ZM259.253 539.208L258.965 539.617L258.969 539.62L259.253 539.208ZM272.241 558.007L271.769 558.17L271.77 558.175L272.241 558.007ZM57.9346 574.926H57.4346L57.4346 574.927L57.9346 574.926ZM69.5557 526.562L70.0029 526.785L70.1819 526.427L69.8718 526.174L69.5557 526.562ZM156.372 266.454V265.954L156.37 265.954L156.372 266.454ZM185.767 270.897L185.895 270.414L185.89 270.413L185.767 270.897ZM193.115 272.777L192.978 273.258L192.997 273.264L193.017 273.268L193.115 272.777ZM200.293 274.486L200.181 274.974L200.182 274.974L200.293 274.486ZM239.258 266.454L239.444 265.99L239.099 265.852L238.867 266.142L239.258 266.454ZM240.112 266.796L240.498 267.115L240.935 266.586L240.298 266.332L240.112 266.796ZM249.341 369.677V370.177H250.027L249.817 369.524L249.341 369.677ZM248.828 369.677L248.353 369.832L248.465 370.177H248.828V369.677ZM84.082 504.687L83.6133 504.861L83.9093 505.658L84.462 505.011L84.082 504.687ZM172.778 464.354L172.776 464.854H172.778V464.354ZM287.964 486.742L288.056 486.251L288.054 486.25L287.964 486.742ZM278.052 480.419L278.551 480.447L278.552 480.421L278.551 480.395L278.052 480.419ZM286.426 475.121V475.621H286.999L286.921 475.053L286.426 475.121ZM420.923 549.12L420.752 548.65L420.046 548.907L420.555 549.459L420.923 549.12ZM243.018 489.647L243.327 489.255L242.797 488.836L242.552 489.466L243.018 489.647ZM278.065 480.388C277.963 482.02 278.955 483.321 280.636 484.33C282.313 485.336 284.773 486.118 287.868 486.72L288.059 485.739C285.002 485.144 282.678 484.389 281.15 483.472C279.627 482.558 278.995 481.552 279.063 480.45L278.065 480.388ZM287.872 486.721C344.546 497.305 388.54 518.977 414.086 542.99L414.771 542.262C389.048 518.082 344.859 496.346 288.056 485.738L287.872 486.721ZM414.863 542.873C418.421 536.626 420.607 527.481 421.912 514.135C423.217 500.778 423.645 483.155 423.645 459.911H422.645C422.645 483.152 422.217 500.733 420.917 514.037C419.615 527.351 417.443 536.321 413.994 542.379L414.863 542.873ZM423.645 459.911C423.645 438.12 423.271 421.279 422.163 408.279C421.057 395.287 419.214 386.084 416.251 379.595C413.274 373.076 409.164 369.292 403.568 367.159C398.01 365.04 391.016 364.562 382.3 364.562V365.562C391.015 365.562 397.842 366.046 403.212 368.093C408.543 370.125 412.465 373.711 415.341 380.01C418.231 386.338 420.063 395.4 421.167 408.364C422.271 421.319 422.645 438.124 422.645 459.911H423.645ZM382.3 364.562C373.583 364.562 366.589 365.04 361.032 367.159C355.436 369.292 351.326 373.076 348.349 379.595C345.385 386.084 343.543 395.287 342.436 408.279C341.329 421.279 340.955 438.12 340.955 459.911H341.955C341.955 438.124 342.329 421.319 343.433 408.364C344.537 395.4 346.369 386.338 349.259 380.01C352.135 373.711 356.057 370.125 361.388 368.093C366.757 366.046 373.585 365.562 382.3 365.562V364.562ZM340.955 459.911C340.955 465.891 340.955 471.539 341.126 476.846L342.126 476.814C341.955 471.526 341.955 465.894 341.955 459.911H340.955ZM341.126 476.83C341.126 480.804 339.732 482.644 338.113 483.454C336.436 484.292 334.359 484.11 332.873 483.697L332.605 484.66C334.195 485.102 336.562 485.347 338.56 484.348C340.615 483.321 342.126 481.06 342.126 476.83H341.126ZM332.867 483.695C324.543 481.487 307.531 475.134 286.426 475.134V476.134C307.361 476.134 324.188 482.427 332.611 484.662L332.867 483.695ZM286.426 475.134C283.747 475.134 281.629 475.519 280.188 476.379C279.459 476.814 278.897 477.375 278.533 478.069C278.169 478.763 278.019 479.56 278.065 480.445L279.064 480.393C279.025 479.654 279.152 479.042 279.418 478.534C279.685 478.026 280.105 477.593 280.701 477.238C281.909 476.517 283.807 476.134 286.426 476.134V475.134ZM155.518 555.285C126.899 555.285 99.8266 547.279 77.6994 532.13L77.1345 532.956C99.441 548.227 126.714 556.285 155.518 556.285V555.285ZM77.8739 532.746C79.9199 528.143 82.1266 523.733 84.8343 519.84L84.0134 519.269C81.2523 523.238 79.0156 527.715 76.9601 532.34L77.8739 532.746ZM84.8365 519.837C85.8999 518.283 86.992 517.722 87.9123 517.789C88.84 517.856 89.8296 518.577 90.6464 520.129L91.5313 519.664C90.6392 517.969 89.4071 516.895 87.9849 516.792C86.5554 516.688 85.1695 517.579 84.0112 519.272L84.8365 519.837ZM90.6534 520.142C97.445 532.178 106.183 540.966 116.979 546.741C127.771 552.514 140.589 555.26 155.518 555.26V554.26C140.71 554.26 128.064 551.537 117.451 545.859C106.841 540.184 98.2337 531.541 91.5243 519.651L90.6534 520.142ZM155.518 555.26C197.309 555.26 228.907 525.85 242.801 489.312L241.867 488.957C228.076 525.222 196.783 554.26 155.518 554.26V555.26ZM242.639 488.739C223.934 474.324 201.441 464.88 172.778 464.88V465.88C201.196 465.88 223.478 475.235 242.029 489.531L242.639 488.739ZM172.78 464.88C109.629 464.708 58.46 513.964 58.46 574.926H59.46C59.46 514.55 110.146 465.71 172.777 465.88L172.78 464.88ZM58.46 574.926C58.46 634.675 106.877 683.092 166.626 683.092V682.092C107.429 682.092 59.46 634.122 59.46 574.926H58.46ZM166.626 683.092C224.115 683.092 274.621 638.3 274.621 581.42H273.621C273.621 637.675 223.639 682.092 166.626 682.092V683.092ZM274.621 581.42C274.621 573.535 273.936 565.446 271.693 558.201L270.738 558.496C272.939 565.606 273.621 573.582 273.621 581.42H274.621ZM271.699 558.22C270.98 555.524 269.361 553.727 267.927 552.651L267.327 553.451C268.627 554.426 270.084 556.047 270.733 558.477L271.699 558.22ZM267.884 552.622C266.988 552.084 266.08 551.719 265.162 551.535L264.965 552.516C265.756 552.674 266.557 552.992 267.37 553.48L267.884 552.622ZM265.109 551.527C261.128 551.166 256.545 553.688 252.086 557.632L252.748 558.381C257.176 554.465 261.48 552.202 265.018 552.523L265.109 551.527ZM252.077 557.64C249.808 559.747 246.712 560.573 243.583 560.244L243.478 561.238C246.843 561.593 250.241 560.71 252.757 558.373L252.077 557.64ZM243.628 560.251C241.947 559.915 240.311 559.419 238.852 558.445L238.297 559.277C239.913 560.355 241.695 560.884 243.432 561.232L243.628 560.251ZM238.857 558.449C233.642 554.864 232.628 547.662 236.256 542.22L235.424 541.665C231.532 547.502 232.568 555.339 238.291 559.273L238.857 558.449ZM236.253 542.224C239.052 538.108 244.166 535.624 249.795 536.287L249.912 535.293C243.92 534.588 238.438 537.232 235.426 541.661L236.253 542.224ZM249.804 536.288C253.146 536.622 256.138 537.621 258.965 539.616L259.541 538.8C256.557 536.693 253.397 535.642 249.903 535.293L249.804 536.288ZM258.969 539.62C263.822 542.967 268.55 548.852 271.769 558.17L272.714 557.844C269.439 548.362 264.596 542.285 259.537 538.796L258.969 539.62ZM271.77 558.175C274.302 565.263 274.646 573.559 274.646 581.42H275.646C275.646 573.558 275.307 565.106 272.712 557.839L271.77 558.175ZM274.646 581.42C274.646 638.187 223.981 683.117 166.626 683.117V684.117C224.457 684.117 275.646 638.813 275.646 581.42H274.646ZM166.626 683.117C107.088 683.117 58.6047 634.635 58.4346 574.924L57.4346 574.927C57.6063 635.187 106.535 684.117 166.626 684.117V683.117ZM58.4346 574.926C58.4346 557.749 62.6862 541.418 70.0029 526.785L69.1085 526.338C61.7279 541.099 57.4346 557.581 57.4346 574.926H58.4346ZM69.8718 526.174C40.2655 502.013 21.0078 463.368 21.0078 411.718H20.0078C20.0078 463.632 39.3732 502.575 69.2395 526.949L69.8718 526.174ZM21.0078 411.718C21.0078 369.103 34.899 333 58.7483 307.512C82.5954 282.027 116.427 267.124 156.374 266.954L156.37 265.954C116.166 266.126 82.0652 281.13 58.0181 306.829C33.9731 332.526 20.0078 368.884 20.0078 411.718H21.0078ZM156.372 266.954C166.391 266.954 176.255 268.992 185.643 271.382L185.89 270.413C176.48 268.018 166.519 265.954 156.372 265.954V266.954ZM185.638 271.381C188.247 272.076 190.577 272.572 192.978 273.258L193.253 272.297C190.868 271.615 188.414 271.086 185.895 270.414L185.638 271.381ZM193.017 273.268C195.578 273.78 197.918 274.451 200.181 274.974L200.405 273.999C198.224 273.496 195.779 272.8 193.213 272.287L193.017 273.268ZM200.182 274.974C206.18 276.345 211.69 277.208 216.87 277.208V276.208C211.796 276.208 206.368 275.362 200.404 273.999L200.182 274.974ZM216.87 277.208C225.705 277.208 233.382 274.599 239.648 266.766L238.867 266.142C232.829 273.69 225.467 276.208 216.87 276.208V277.208ZM239.072 266.918L239.927 267.26L240.298 266.332L239.444 265.99L239.072 266.918ZM239.727 266.477C235.511 271.571 233.289 280.436 233.289 292.772H234.289C234.289 280.5 236.51 271.933 240.498 267.115L239.727 266.477ZM233.289 292.772C233.289 310.793 238.092 336.314 248.865 369.83L249.817 369.524C239.057 336.048 234.289 310.641 234.289 292.772H233.289ZM249.341 369.177H248.828V370.177H249.341V369.177ZM249.303 369.522C239.117 338.278 224.345 312.662 207.902 294.847C191.469 277.043 173.316 266.979 156.372 266.979V267.979C172.924 267.979 190.831 277.826 207.167 295.526C223.495 313.215 238.202 338.698 248.353 369.832L249.303 369.522ZM156.372 266.979C141.024 266.979 128.007 269.487 117.12 274.909C106.227 280.334 97.4953 288.662 90.7003 300.253C77.1268 323.405 71.2773 359.582 71.2773 411.718H72.2773C72.2773 359.605 78.1344 323.664 91.5629 300.758C98.2688 289.32 106.862 281.135 117.566 275.804C128.276 270.471 141.129 267.979 156.372 267.979V266.979ZM71.2773 411.718C71.2773 451.389 75.2089 482.22 83.6133 504.861L84.5508 504.513C76.2071 482.036 72.2773 451.343 72.2773 411.718H71.2773ZM84.462 505.011C105.561 480.339 137.21 464.684 172.776 464.854L172.781 463.854C136.911 463.683 104.986 479.473 83.702 504.362L84.462 505.011ZM172.778 464.854C234.947 464.854 268.013 508.794 295.722 552.975C309.556 575.031 322.068 597.174 336.179 613.777C350.303 630.394 366.109 641.563 386.572 641.563V640.563C366.532 640.563 350.979 629.645 336.941 613.129C322.892 596.599 310.443 574.564 296.569 552.443C268.864 508.269 235.536 463.854 172.778 463.854V464.854ZM386.572 641.563C401.905 641.563 414.941 636.091 424.143 626.651C433.345 617.212 438.684 603.837 438.684 588.085H437.684C437.684 603.607 432.427 616.722 423.427 625.953C414.429 635.184 401.659 640.563 386.572 640.563V641.563ZM438.684 588.085C438.684 569.036 423.729 547.843 397.521 529.315C371.283 510.766 333.658 494.806 288.056 486.251L287.872 487.234C333.359 495.768 370.843 511.68 396.943 530.131C423.072 548.603 437.684 569.536 437.684 588.085H438.684ZM288.054 486.25C284.829 485.656 282.381 484.858 280.772 483.861C279.175 482.87 278.479 481.737 278.551 480.447L277.553 480.391C277.453 482.177 278.467 483.607 280.245 484.71C282.011 485.806 284.604 486.632 287.873 487.234L288.054 486.25ZM278.551 480.395C278.474 478.77 279.078 477.623 280.324 476.849C281.615 476.047 283.639 475.621 286.426 475.621V474.621C283.573 474.621 281.324 475.05 279.796 475.999C278.222 476.977 277.459 478.479 277.552 480.443L278.551 480.395ZM286.921 475.053C286.241 470.12 285.9 465.187 285.9 459.911H284.9C284.9 465.231 285.244 470.21 285.93 475.189L286.921 475.053ZM285.9 459.911C285.9 431.999 295.344 408.163 312.095 391.306C328.844 374.45 352.936 364.537 382.3 364.537V363.537C352.704 363.537 328.346 373.533 311.385 390.601C294.426 407.668 284.9 431.769 284.9 459.911H285.9ZM382.3 364.537C411.664 364.537 435.755 374.45 452.505 391.306C469.255 408.163 478.699 431.999 478.699 459.911H479.699C479.699 431.769 470.174 407.668 453.214 390.601C436.254 373.533 411.896 363.537 382.3 363.537V364.537ZM478.699 459.911C478.699 502.451 456.762 535.571 420.752 548.65L421.094 549.59C457.545 536.351 479.699 502.82 479.699 459.911H478.699ZM420.555 549.459C432.468 562.393 438.709 575.778 438.709 588.085H439.709C439.709 575.44 433.304 561.824 421.291 548.781L420.555 549.459ZM438.709 588.085C438.709 603.864 433.366 617.235 424.196 626.658C415.027 636.081 402.001 641.589 386.572 641.589V642.589C402.247 642.589 415.539 636.988 424.913 627.356C434.285 617.724 439.709 604.093 439.709 588.085H438.709ZM386.572 641.589C370.919 641.589 358.003 635.164 346.453 624.724C334.891 614.274 324.721 599.819 314.576 583.801C294.317 551.813 274.176 513.591 243.327 489.255L242.708 490.04C273.383 514.239 293.402 552.237 313.732 584.336C323.881 600.362 334.112 614.918 345.782 625.466C357.464 636.025 370.609 642.589 386.572 642.589V641.589ZM242.552 489.466C228.248 526.247 196.442 555.285 155.518 555.285V556.285C196.967 556.285 229.076 526.876 243.484 489.829L242.552 489.466ZM505.347 551H504.847V551.604L505.44 551.491L505.347 551ZM505.347 550.658L505.235 550.171L504.847 550.26V550.658H505.347ZM496.46 371.898L496.369 372.39L496.377 372.392L496.385 372.393L496.46 371.898ZM998.56 240.648L998.06 240.647L998.06 240.65L998.56 240.648ZM909.351 151.61V152.11L909.352 152.11L909.351 151.61ZM845.264 178.783L844.899 178.441L844.897 178.443L845.264 178.783ZM853.638 195.873L853.446 196.335L853.446 196.335L853.638 195.873ZM856.201 215.355L855.895 214.96L855.894 214.961L856.201 215.355ZM835.864 210.399L836.292 210.141L836.291 210.139L835.864 210.399ZM837.061 187.157L836.641 186.886L836.639 186.889L837.061 187.157ZM844.58 178.1L844.923 178.464L844.931 178.456L844.939 178.448L844.58 178.1ZM909.351 150.585V151.085L909.352 151.085L909.351 150.585ZM999.585 240.648L999.085 240.647L999.085 240.65L999.585 240.648ZM496.46 371.557L496.368 372.048L496.383 372.051L496.399 372.053L496.46 371.557ZM529.614 373.949L529.605 374.449H529.614V373.949ZM583.276 360.277L583.63 359.924L583.316 359.61L582.968 359.884L583.276 360.277ZM583.447 360.448H583.947V360.241L583.801 360.095L583.447 360.448ZM583.447 394.286H582.947V395.76L583.844 394.59L583.447 394.286ZM698.462 394.628L698.042 394.899L698.462 395.551L698.882 394.899L698.462 394.628ZM844.751 550.658H845.251V550.26L844.862 550.171L844.751 550.658ZM844.751 551L844.657 551.491L845.251 551.604V551H844.751ZM736.401 551H735.901V551.604L736.495 551.491L736.401 551ZM736.401 550.658L736.29 550.171L735.901 550.26V550.658H736.401ZM698.975 395.312L698.541 395.062L698.475 395.178V395.312H698.975ZM729.224 550.658H729.724V550.26L729.335 550.171L729.224 550.658ZM729.224 551L729.13 551.491L729.724 551.604V551H729.224ZM620.874 551H620.374V551.604L620.968 551.491L620.874 551ZM620.874 550.658L620.763 550.171L620.374 550.26V550.658H620.874ZM583.447 395.312L583.04 395.021L582.947 395.152V395.312H583.447ZM613.696 550.658H614.196V550.26L613.808 550.171L613.696 550.658ZM613.696 551L613.603 551.491L614.196 551.604V551H613.696ZM862.354 551H861.854V551.601L862.444 551.492L862.354 551ZM862.354 550.658L862.243 550.171L861.854 550.259V550.658H862.354ZM892.432 538.012L892.923 538.103L892.932 538.058V538.012H892.432ZM853.467 371.898H852.967V372.328L853.392 372.393L853.467 371.898ZM853.467 371.557L853.528 371.06L852.967 370.991V371.557H853.467ZM940.283 360.277V359.777H940.113L939.978 359.881L940.283 360.277ZM940.454 360.277H940.954V359.777H940.454V360.277ZM940.967 539.037L941.45 538.909L941.442 538.88L941.431 538.851L940.967 539.037ZM970.703 550.658H971.203V550.259L970.813 550.17L970.703 550.658ZM970.703 551L970.616 551.492L971.203 551.596V551H970.703ZM988.818 551H988.318V551.604L988.912 551.491L988.818 551ZM988.818 550.658L988.707 550.171L988.318 550.26V550.658H988.818ZM979.932 371.898H979.432V372.328L979.857 372.393L979.932 371.898ZM979.932 371.557L979.993 371.06L979.432 370.991V371.557H979.932ZM1013.09 373.949L1013.08 374.449H1013.09V373.949ZM1066.75 360.277L1067.1 359.924L1066.79 359.613L1066.44 359.882L1066.75 360.277ZM1066.92 360.448H1067.42V360.241L1067.27 360.095L1066.92 360.448ZM1066.92 398.046H1066.42V399.443L1067.31 398.363L1066.92 398.046ZM1216.11 550.658H1216.61V550.26L1216.22 550.171L1216.11 550.658ZM1216.11 551L1216.02 551.491L1216.61 551.604V551H1216.11ZM1107.76 551H1107.26V551.604L1107.86 551.491L1107.76 551ZM1107.76 550.658L1107.65 550.171L1107.26 550.26V550.658H1107.76ZM1066.92 399.071L1066.54 398.75L1066.42 398.889V399.071H1066.92ZM1097.17 550.658H1097.67V550.26L1097.28 550.171L1097.17 550.658ZM1097.17 551L1097.07 551.491L1097.67 551.604V551H1097.17ZM505.847 551V550.658H504.847V551H505.847ZM505.458 551.146C509.927 550.124 514.044 549.464 517.727 548.841C521.398 548.22 524.655 547.633 527.355 546.754C530.058 545.875 532.26 544.687 533.78 542.828C535.307 540.96 536.096 538.476 536.096 535.106H535.096C535.096 538.316 534.347 540.554 533.006 542.195C531.658 543.844 529.662 544.952 527.046 545.803C524.427 546.655 521.243 547.232 517.56 547.855C513.888 548.477 509.738 549.141 505.235 550.171L505.458 551.146ZM536.096 535.106V388.476H535.096V535.106H536.096ZM536.096 388.476C536.096 385.107 535.318 382.555 533.66 380.588C532.012 378.633 529.547 377.319 526.302 376.313C523.056 375.307 518.973 374.592 514.038 373.874C509.083 373.152 503.291 372.43 496.535 371.404L496.385 372.393C503.13 373.417 508.98 374.148 513.894 374.863C518.829 375.582 522.842 376.287 526.006 377.268C529.169 378.249 531.425 379.488 532.896 381.233C534.357 382.967 535.096 385.265 535.096 388.476H536.096ZM496.551 371.407C404.775 354.348 331.701 290.929 331.701 190.233H330.701C330.701 291.54 404.258 355.269 496.369 372.39L496.551 371.407ZM331.701 190.233C331.701 88.3277 421.012 1.89062 526.367 1.89062V0.890625C420.491 0.890625 330.701 87.7446 330.701 190.233H331.701ZM526.367 1.89062C588.149 1.89062 632.7 22.3828 667.347 53.1143C702.011 83.8614 726.779 124.873 748.95 165.947C771.104 206.99 790.682 248.133 814.942 278.988C839.224 309.87 868.257 330.528 909.351 330.528V329.528C868.669 329.528 839.896 309.107 815.728 278.37C791.538 247.604 772.024 206.589 749.83 165.472C727.653 124.387 702.816 83.2387 668.011 52.3662C633.187 21.4782 588.402 0.890625 526.367 0.890625V1.89062ZM909.351 330.528C959.017 330.528 999.231 290.143 999.06 240.647L998.06 240.65C998.23 289.592 958.464 329.528 909.351 329.528V330.528ZM999.06 240.65C999.231 191.153 959.015 150.938 909.349 151.11L909.352 152.11C958.465 151.94 998.23 191.706 998.06 240.647L999.06 240.65ZM909.351 151.11C884.093 151.11 861.06 161.249 844.899 178.441L845.628 179.126C861.596 162.138 884.364 152.11 909.351 152.11V151.11ZM844.897 178.443C843.224 180.249 842.308 182.048 842.063 183.812C841.818 185.581 842.255 187.26 843.191 188.805C845.047 191.868 848.883 194.441 853.446 196.335L853.829 195.411C849.334 193.545 845.737 191.077 844.046 188.287C843.209 186.905 842.845 185.454 843.054 183.949C843.263 182.439 844.057 180.821 845.63 179.123L844.897 178.443ZM853.446 196.335C856.775 197.715 859.197 200.981 859.875 204.616C860.55 208.233 859.491 212.181 855.895 214.96L856.507 215.751C860.431 212.719 861.594 208.379 860.858 204.433C860.126 200.507 857.507 196.936 853.829 195.411L853.446 196.335ZM855.894 214.961C852.536 217.582 848.608 217.956 845.022 216.884C841.425 215.809 838.193 213.282 836.292 210.141L835.437 210.658C837.466 214.011 840.899 216.696 844.736 217.843C848.584 218.993 852.859 218.598 856.509 215.75L855.894 214.961ZM836.291 210.139C833.978 206.34 831.622 196.635 837.482 187.426L836.639 186.889C830.536 196.478 832.965 206.598 835.437 210.659L836.291 210.139ZM837.48 187.429C839.341 184.553 842.05 181.167 844.923 178.464L844.237 177.736C841.299 180.501 838.54 183.951 836.641 186.886L837.48 187.429ZM844.939 178.448C861.256 161.621 884.029 151.085 909.351 151.085V150.085C883.745 150.085 860.717 160.741 844.221 177.752L844.939 178.448ZM909.352 151.085C958.978 150.915 999.255 191.023 999.085 240.647L1000.08 240.65C1000.26 190.469 959.527 149.913 909.349 150.085L909.352 151.085ZM999.085 240.65C999.255 290.104 958.977 330.554 909.351 330.554V331.554C959.529 331.554 1000.26 290.655 1000.08 240.647L999.085 240.65ZM909.351 330.554C868.411 330.554 839.435 310.131 815.126 279.394C790.796 248.629 771.201 207.613 748.996 166.497C726.809 125.413 702.032 84.2646 667.362 53.3922C632.676 22.5041 588.103 1.91602 526.367 1.91602V2.91602C587.849 2.91602 632.187 23.4076 666.697 54.1391C701.226 84.8862 725.935 125.898 748.117 166.972C770.282 208.016 789.94 249.159 814.342 280.014C838.766 310.897 868.002 331.554 909.351 331.554V330.554ZM526.367 1.91602C421.004 1.91602 331.727 88.2572 331.727 190.233H332.727C332.727 88.8405 421.525 2.91602 526.367 2.91602V1.91602ZM331.727 190.233C331.727 290.512 404.939 354.926 496.368 372.048L496.552 371.065C405.462 354.007 332.727 289.906 332.727 190.233H331.727ZM496.399 372.053C508.892 373.593 519.847 374.278 529.605 374.449L529.623 373.449C519.899 373.279 508.979 372.596 496.521 371.06L496.399 372.053ZM529.614 374.449C555.303 374.449 572.352 369.485 583.585 360.671L582.968 359.884C571.984 368.502 555.195 373.449 529.614 373.449V374.449ZM582.923 360.631L583.094 360.802L583.801 360.095L583.63 359.924L582.923 360.631ZM582.947 360.448V394.286H583.947V360.448H582.947ZM583.844 394.59C597.252 377.109 615.051 368.297 636.597 368.297V367.297C614.735 367.297 596.645 376.258 583.051 393.982L583.844 394.59ZM636.597 368.297C665.896 368.297 686.718 377.321 698.042 394.899L698.882 394.357C687.306 376.388 666.087 367.297 636.597 367.297V368.297ZM698.882 394.899C710.226 377.29 728.169 368.297 752.124 368.297V367.297C727.885 367.297 709.598 376.419 698.042 394.357L698.882 394.899ZM752.124 368.297C787.882 368.297 814.002 388.023 814.002 414.281H815.002C815.002 387.219 788.143 367.297 752.124 367.297V368.297ZM814.002 414.281V535.106H815.002V414.281H814.002ZM814.002 535.106C814.002 538.476 814.791 540.96 816.318 542.828C817.838 544.687 820.039 545.875 822.743 546.754C825.443 547.633 828.7 548.22 832.371 548.841C836.053 549.464 840.171 550.124 844.64 551.146L844.862 550.171C840.359 549.141 836.209 548.477 832.538 547.855C828.855 547.232 825.671 546.655 823.052 545.803C820.436 544.952 818.44 543.844 817.092 542.195C815.751 540.554 815.002 538.316 815.002 535.106H814.002ZM844.251 550.658V551H845.251V550.658H844.251ZM844.845 550.509C826.867 547.084 808.891 545.544 790.576 545.544V546.544C808.834 546.544 826.747 548.08 844.657 551.491L844.845 550.509ZM790.576 545.544C772.262 545.544 754.286 547.084 736.308 550.509L736.495 551.491C754.406 548.08 772.318 546.544 790.576 546.544V545.544ZM736.901 551V550.658H735.901V551H736.901ZM736.513 551.146C740.982 550.124 745.099 549.464 748.781 548.841C752.453 548.22 755.709 547.633 758.41 546.754C761.113 545.875 763.315 544.687 764.835 542.828C766.361 540.96 767.15 538.476 767.15 535.106H766.15C766.15 538.316 765.401 540.554 764.06 542.195C762.712 543.844 760.716 544.952 758.1 545.803C755.481 546.655 752.297 547.232 748.615 547.855C744.943 548.477 740.793 549.141 736.29 550.171L736.513 551.146ZM767.15 535.106V414.281H766.15V535.106H767.15ZM767.15 414.281C767.15 399.724 765.098 388.685 761 381.27C756.88 373.814 750.694 370.031 742.554 370.031V371.031C750.307 371.031 756.17 374.597 760.125 381.753C764.101 388.949 766.15 399.786 766.15 414.281H767.15ZM742.554 370.031C734.16 370.031 725.146 372.841 717.247 377.36C709.35 381.879 702.526 388.132 698.541 395.062L699.408 395.561C703.285 388.819 709.962 382.682 717.744 378.228C725.526 373.776 734.37 371.031 742.554 371.031V370.031ZM698.475 395.312V535.106H699.475V395.312H698.475ZM698.475 535.106C698.475 538.476 699.264 540.96 700.79 542.828C702.31 544.687 704.512 545.875 707.215 546.754C709.916 547.633 713.172 548.22 716.844 548.841C720.526 549.464 724.643 550.124 729.112 551.146L729.335 550.171C724.832 549.141 720.682 548.477 717.01 547.855C713.328 547.232 710.144 546.655 707.525 545.803C704.909 544.952 702.913 543.844 701.565 542.195C700.224 540.554 699.475 538.316 699.475 535.106H698.475ZM728.724 550.658V551H729.724V550.658H728.724ZM729.317 550.509C711.339 547.084 693.363 545.544 675.049 545.544V546.544C693.307 546.544 711.219 548.08 729.13 551.491L729.317 550.509ZM675.049 545.544C656.734 545.544 638.758 547.084 620.78 550.509L620.968 551.491C638.878 548.08 656.791 546.544 675.049 546.544V545.544ZM621.374 551V550.658H620.374V551H621.374ZM620.985 551.146C625.454 550.124 629.572 549.464 633.254 548.841C636.925 548.22 640.182 547.633 642.882 546.754C645.586 545.875 647.787 544.687 649.307 542.828C650.834 540.96 651.623 538.476 651.623 535.106H650.623C650.623 538.316 649.874 540.554 648.533 542.195C647.185 543.844 645.189 544.952 642.573 545.803C639.954 546.655 636.77 547.232 633.087 547.855C629.416 548.477 625.266 549.141 620.763 550.171L620.985 551.146ZM651.623 535.106V414.281H650.623V535.106H651.623ZM651.623 414.281C651.623 399.724 649.571 388.685 645.472 381.27C641.352 373.814 635.166 370.031 627.026 370.031V371.031C634.78 371.031 640.642 374.597 644.597 381.753C648.574 388.949 650.623 399.786 650.623 414.281H651.623ZM627.026 370.031C619.563 370.031 611.018 372.847 603.13 377.36C595.238 381.876 587.959 388.117 583.04 395.021L583.854 395.602C588.676 388.834 595.838 382.685 603.627 378.228C611.419 373.77 619.792 371.031 627.026 371.031V370.031ZM582.947 395.312V535.106H583.947V395.312H582.947ZM582.947 535.106C582.947 538.476 583.736 540.96 585.263 542.828C586.783 544.687 588.985 545.875 591.688 546.754C594.388 547.633 597.645 548.22 601.316 548.841C604.999 549.464 609.116 550.124 613.585 551.146L613.808 550.171C609.305 549.141 605.155 548.477 601.483 547.855C597.8 547.232 594.616 546.655 591.997 545.803C589.381 544.952 587.385 543.844 586.037 542.195C584.696 540.554 583.947 538.316 583.947 535.106H582.947ZM613.196 550.658V551H614.196V550.658H613.196ZM613.79 550.509C595.812 547.084 577.836 545.544 559.521 545.544V546.544C577.779 546.544 595.692 548.08 613.603 551.491L613.79 550.509ZM559.521 545.544C541.207 545.544 523.231 547.084 505.253 550.509L505.44 551.491C523.351 548.08 541.264 546.544 559.521 546.544V545.544ZM916.699 328.845C899.205 328.845 885.07 314.717 885.07 296.874H884.07C884.07 315.262 898.646 329.845 916.699 329.845V328.845ZM885.07 296.874C885.07 279.542 899.207 265.074 916.699 265.074V264.074C898.644 264.074 884.07 279.001 884.07 296.874H885.07ZM916.699 265.074C934.371 265.074 948.841 279.551 948.841 296.874H949.841C949.841 278.992 934.916 264.074 916.699 264.074V265.074ZM948.841 296.874C948.841 314.708 934.373 328.845 916.699 328.845V329.845C934.915 329.845 949.841 315.271 949.841 296.874H948.841ZM862.854 551V550.658H861.854V551H862.854ZM862.464 551.146C866.592 550.21 870.412 549.582 873.864 549.007C877.308 548.434 880.401 547.912 883.036 547.188C885.672 546.465 887.9 545.527 889.593 544.095C891.301 542.65 892.434 540.728 892.923 538.103L891.94 537.92C891.49 540.337 890.465 542.047 888.947 543.331C887.415 544.627 885.348 545.516 882.772 546.224C880.195 546.932 877.157 547.446 873.7 548.021C870.252 548.595 866.404 549.227 862.243 550.171L862.464 551.146ZM892.932 538.012C892.932 537.611 892.972 537.165 893.015 536.666C893.058 536.177 893.103 535.644 893.103 535.106H892.103C892.103 535.595 892.062 536.087 892.019 536.58C891.977 537.064 891.932 537.558 891.932 538.012H892.932ZM893.103 535.106V388.305H892.103V535.106H893.103ZM893.103 388.305C893.103 384.936 892.324 382.394 890.666 380.443C889.017 378.503 886.55 377.211 883.306 376.226C880.061 375.242 875.978 374.549 871.044 373.847C866.094 373.142 860.293 372.43 853.542 371.404L853.392 372.393C860.142 373.418 865.983 374.137 870.903 374.837C875.838 375.539 879.852 376.224 883.015 377.183C886.179 378.143 888.434 379.361 889.904 381.09C891.364 382.808 892.103 385.094 892.103 388.305H893.103ZM853.967 371.898V371.557H852.967V371.898H853.967ZM853.406 372.053C865.899 373.593 877.028 374.278 886.792 374.278V373.278C877.074 373.278 865.986 372.596 853.528 371.06L853.406 372.053ZM886.792 374.278C912.482 374.278 929.357 369.313 940.588 360.674L939.978 359.881C928.993 368.331 912.372 373.278 886.792 373.278V374.278ZM940.283 360.777H940.454V359.777H940.283V360.777ZM939.954 360.277V535.448H940.954V360.277H939.954ZM939.954 535.448C939.954 536.838 940.126 538.28 940.503 539.223L941.431 538.851C941.124 538.085 940.954 536.793 940.954 535.448H939.954ZM940.483 539.165C941.111 541.539 942.34 543.27 944.089 544.571C945.823 545.861 948.048 546.714 950.648 547.383C953.248 548.052 956.268 548.546 959.607 549.095C962.954 549.646 966.636 550.252 970.593 551.146L970.813 550.17C966.824 549.27 963.114 548.659 959.769 548.109C956.417 547.558 953.445 547.07 950.897 546.414C948.348 545.759 946.268 544.945 944.686 543.768C943.118 542.602 942.019 541.064 941.45 538.909L940.483 539.165ZM970.203 550.658V551H971.203V550.658H970.203ZM970.79 550.508C952.307 547.256 934.163 545.544 916.016 545.544V546.544C934.099 546.544 952.185 548.25 970.616 551.492L970.79 550.508ZM916.016 545.544C897.869 545.544 879.894 547.256 862.263 550.508L862.444 551.492C880.018 548.25 897.932 546.544 916.016 546.544V545.544ZM989.318 551V550.658H988.318V551H989.318ZM988.93 551.146C993.399 550.124 997.516 549.464 1001.2 548.841C1004.87 548.22 1008.13 547.633 1010.83 546.754C1013.53 545.875 1015.73 544.687 1017.25 542.828C1018.78 540.96 1019.57 538.476 1019.57 535.106H1018.57C1018.57 538.316 1017.82 540.554 1016.48 542.195C1015.13 543.844 1013.13 544.952 1010.52 545.803C1007.9 546.655 1004.71 547.232 1001.03 547.855C997.36 548.477 993.21 549.141 988.707 550.171L988.93 551.146ZM1019.57 535.106V388.476H1018.57V535.106H1019.57ZM1019.57 388.476C1019.57 385.107 1018.79 382.555 1017.13 380.588C1015.48 378.633 1013.02 377.319 1009.77 376.313C1006.53 375.307 1002.45 374.592 997.51 373.874C992.555 373.152 986.763 372.43 980.007 371.404L979.857 372.393C986.602 373.417 992.452 374.148 997.366 374.863C1002.3 375.582 1006.31 376.287 1009.48 377.268C1012.64 378.249 1014.9 379.488 1016.37 381.233C1017.83 382.967 1018.57 385.265 1018.57 388.476H1019.57ZM980.432 371.898V371.557H979.432V371.898H980.432ZM979.87 372.053C992.364 373.593 1003.32 374.278 1013.08 374.449L1013.09 373.449C1003.37 373.279 992.451 372.596 979.993 371.06L979.87 372.053ZM1013.09 374.449C1038.78 374.449 1055.65 369.484 1067.05 360.673L1066.44 359.882C1055.29 368.503 1038.66 373.449 1013.09 373.449V374.449ZM1066.39 360.631L1066.57 360.802L1067.27 360.095L1067.1 359.924L1066.39 360.631ZM1066.42 360.448V398.046H1067.42V360.448H1066.42ZM1067.31 398.363C1084.5 377.428 1101.45 368.297 1123.49 368.297V367.297C1101.08 367.297 1083.86 376.623 1066.53 397.729L1067.31 398.363ZM1123.49 368.297C1159.24 368.297 1185.36 388.023 1185.36 414.281H1186.36C1186.36 387.219 1159.51 367.297 1123.49 367.297V368.297ZM1185.36 414.281V535.106H1186.36V414.281H1185.36ZM1185.36 535.106C1185.36 538.476 1186.15 540.96 1187.68 542.828C1189.2 544.687 1191.4 545.875 1194.1 546.754C1196.81 547.633 1200.06 548.22 1203.73 548.841C1207.42 549.464 1211.53 550.124 1216 551.146L1216.22 550.171C1211.72 549.141 1207.57 548.477 1203.9 547.855C1200.22 547.232 1197.03 546.655 1194.41 545.803C1191.8 544.952 1189.8 543.844 1188.45 542.195C1187.11 540.554 1186.36 538.316 1186.36 535.106H1185.36ZM1215.61 550.658V551H1216.61V550.658H1215.61ZM1216.21 550.509C1198.23 547.084 1180.25 545.544 1161.94 545.544V546.544C1180.2 546.544 1198.11 548.08 1216.02 551.491L1216.21 550.509ZM1161.94 545.544C1143.62 545.544 1125.65 547.084 1107.67 550.509L1107.86 551.491C1125.77 548.08 1143.68 546.544 1161.94 546.544V545.544ZM1108.26 551V550.658H1107.26V551H1108.26ZM1107.88 551.146C1112.34 550.124 1116.46 549.464 1120.14 548.841C1123.81 548.22 1127.07 547.633 1129.77 546.754C1132.48 545.875 1134.68 544.687 1136.2 542.828C1137.72 540.96 1138.51 538.476 1138.51 535.106H1137.51C1137.51 538.316 1136.76 540.554 1135.42 542.195C1134.07 543.844 1132.08 544.952 1129.46 545.803C1126.84 546.655 1123.66 547.232 1119.98 547.855C1116.31 548.477 1112.16 549.141 1107.65 550.171L1107.88 551.146ZM1138.51 535.106V414.281H1137.51V535.106H1138.51ZM1138.51 414.281C1138.51 401.566 1135.64 390.658 1130.77 382.912C1125.9 375.161 1119 370.544 1111.01 370.544V371.544C1118.57 371.544 1125.18 375.899 1129.92 383.444C1134.66 390.993 1137.51 401.704 1137.51 414.281H1138.51ZM1111.01 370.544C1097.45 370.544 1081.77 380.605 1066.54 398.75L1067.3 399.393C1082.49 381.307 1097.91 371.544 1111.01 371.544V370.544ZM1066.42 399.071V535.106H1067.42V399.071H1066.42ZM1066.42 535.106C1066.42 538.476 1067.21 540.96 1068.73 542.828C1070.25 544.687 1072.46 545.875 1075.16 546.754C1077.86 547.633 1081.12 548.22 1084.79 548.841C1088.47 549.464 1092.59 550.124 1097.06 551.146L1097.28 550.171C1092.78 549.141 1088.63 548.477 1084.95 547.855C1081.27 547.232 1078.09 546.655 1075.47 545.803C1072.85 544.952 1070.86 543.844 1069.51 542.195C1068.17 540.554 1067.42 538.316 1067.42 535.106H1066.42ZM1096.67 550.658V551H1097.67V550.658H1096.67ZM1097.26 550.509C1079.28 547.084 1061.31 545.544 1042.99 545.544V546.544C1061.25 546.544 1079.16 548.08 1097.07 551.491L1097.26 550.509ZM1042.99 545.544C1024.68 545.544 1006.7 547.084 988.725 550.509L988.912 551.491C1006.82 548.08 1024.74 546.544 1042.99 546.544V545.544ZM1264.82 505.028L1265.04 505.479L1265.88 505.069L1265.07 504.596L1264.82 505.028ZM1257.47 500.756L1257.72 500.324L1257.71 500.318L1257.7 500.313L1257.47 500.756ZM1312.67 389.33H1313.17L1313.17 389.325L1312.67 389.33ZM1323.61 339.086L1323.23 338.759L1323.23 338.76L1323.61 339.086ZM1368.73 316.186L1368.61 316.673L1368.85 315.7L1368.73 316.186ZM1324.46 339.599L1324.84 339.928L1324.84 339.927L1324.46 339.599ZM1299.68 364.208L1299.48 363.751L1299.66 364.708L1299.68 364.208ZM1377.27 569.799L1377.02 570.232L1377.02 570.233L1377.27 569.799ZM1266.02 505.712L1266.27 505.279L1266.04 505.149L1265.8 505.259L1266.02 505.712ZM1305.49 645.861C1258.38 645.861 1223.45 614.25 1223.45 572.021H1222.45C1222.45 614.898 1257.93 646.861 1305.49 646.861V645.861ZM1223.45 572.021C1223.45 542.653 1240.42 517.361 1265.04 505.479L1264.6 504.578C1239.65 516.622 1222.45 542.258 1222.45 572.021H1223.45ZM1265.07 504.596L1257.72 500.324L1257.22 501.188L1264.57 505.461L1265.07 504.596ZM1257.7 500.313C1248.43 495.463 1243.63 491.15 1241.15 487.73C1238.68 484.329 1238.49 481.79 1238.49 480.419H1237.49C1237.49 481.954 1237.72 484.712 1240.34 488.318C1242.94 491.905 1247.89 496.307 1257.24 501.199L1257.7 500.313ZM1238.49 480.419C1238.49 478.231 1238.97 476.383 1239.95 474.835C1240.92 473.286 1242.41 472.001 1244.47 470.976C1248.61 468.915 1255.01 467.931 1263.96 467.931V466.931C1254.98 466.931 1248.38 467.912 1244.02 470.081C1241.83 471.17 1240.19 472.567 1239.1 474.302C1238.01 476.038 1237.49 478.079 1237.49 480.419H1238.49ZM1263.96 467.931H1294.21V466.931H1263.96V467.931ZM1294.21 467.931C1297.58 467.931 1300.47 467.221 1302.92 465.654C1305.36 464.088 1307.32 461.691 1308.83 458.389C1311.85 451.81 1313.17 441.546 1313.17 426.757H1312.17C1312.17 441.533 1310.84 451.606 1307.92 457.972C1306.47 461.143 1304.63 463.372 1302.38 464.812C1300.13 466.252 1297.43 466.931 1294.21 466.931V467.931ZM1313.17 426.757V389.33H1312.17V426.757H1313.17ZM1313.17 389.325C1313.09 380.664 1311.67 374.464 1308.67 370.425C1305.64 366.35 1301.07 364.562 1294.9 364.562V365.562C1300.86 365.562 1305.09 367.279 1307.87 371.022C1310.68 374.801 1312.09 380.736 1312.17 389.335L1313.17 389.325ZM1294.9 364.562C1288.4 364.562 1283.73 366.344 1280.72 370.427C1277.73 374.47 1276.45 380.674 1276.45 389.33H1277.45C1277.45 380.725 1278.74 374.796 1281.52 371.02C1284.28 367.284 1288.58 365.562 1294.9 365.562V364.562ZM1276.45 389.33V451.879H1277.45V389.33H1276.45ZM1276.45 451.879C1276.45 454.012 1275.52 455.61 1273.88 456.696C1272.22 457.797 1269.8 458.386 1266.87 458.386V459.386C1269.92 459.386 1272.55 458.778 1274.43 457.529C1276.34 456.265 1277.45 454.36 1277.45 451.879H1276.45ZM1266.87 458.386C1247.01 458.386 1229.6 439.844 1229.6 418.383H1228.6C1228.6 440.33 1246.4 459.386 1266.87 459.386V458.386ZM1229.6 418.383C1229.6 402.121 1236.08 388.678 1247.45 379.291C1258.83 369.897 1275.16 364.537 1294.9 364.537V363.537C1274.99 363.537 1258.42 368.944 1246.81 378.52C1235.2 388.103 1228.6 401.832 1228.6 418.383H1229.6ZM1294.9 364.537C1296.53 364.537 1298.02 364.327 1299.63 363.652C1301.22 362.98 1302.92 361.859 1304.97 360.078C1309.06 356.524 1314.68 350.255 1323.99 339.412L1323.23 338.76C1313.91 349.621 1308.34 355.827 1304.31 359.323C1302.3 361.066 1300.7 362.114 1299.24 362.73C1297.78 363.341 1296.43 363.537 1294.9 363.537V364.537ZM1323.99 339.413C1339.18 321.825 1349.99 314.806 1361.72 314.806V313.806C1349.52 313.806 1338.45 321.142 1323.23 338.759L1323.99 339.413ZM1361.72 314.806C1375.71 314.806 1386.85 324.06 1386.85 336.01H1387.85C1387.85 323.35 1376.09 313.806 1361.72 313.806V314.806ZM1386.85 336.01V336.352H1387.85V336.01H1386.85ZM1386.85 336.352C1386.85 347.531 1377.67 356.701 1366.85 356.701V357.701C1378.24 357.701 1387.85 348.073 1387.85 336.352H1386.85ZM1366.85 356.701C1355.68 356.701 1346.67 347.531 1346.67 336.352H1345.67C1345.67 348.073 1355.11 357.701 1366.85 357.701V356.701ZM1346.67 336.352C1346.67 325.525 1355.67 316.515 1366.85 316.515V315.515C1355.12 315.515 1345.67 324.962 1345.67 336.352H1346.67ZM1366.85 316.515C1367.53 316.515 1367.99 316.516 1368.6 316.671L1368.85 315.7C1368.1 315.513 1367.53 315.515 1366.85 315.515V316.515ZM1368.84 315.698C1366.59 315.179 1364.16 314.831 1361.72 314.831V315.831C1364.07 315.831 1366.42 316.166 1368.61 316.673L1368.84 315.698ZM1361.72 314.831C1350.03 314.831 1339.14 321.997 1324.09 339.27L1324.84 339.927C1339.87 322.679 1350.5 315.831 1361.72 315.831V314.831ZM1324.09 339.269C1316.91 347.474 1311.88 353.102 1308.07 356.934C1304.25 360.773 1301.7 362.766 1299.48 363.751L1299.89 364.665C1302.28 363.599 1304.94 361.491 1308.77 357.639C1312.61 353.781 1317.66 348.129 1324.84 339.928L1324.09 339.269ZM1299.66 364.708C1318.03 365.473 1333.17 371.126 1343.7 380.455C1354.23 389.777 1360.19 402.798 1360.19 418.383H1361.19C1361.19 402.523 1355.11 389.225 1344.36 379.706C1333.62 370.193 1318.25 364.481 1299.7 363.708L1299.66 364.708ZM1360.19 418.383C1360.19 433.481 1355.23 445.863 1346.48 454.47C1337.72 463.079 1325.12 467.956 1309.77 467.956V468.956C1325.34 468.956 1338.21 464.007 1347.18 455.183C1356.16 446.359 1361.19 433.705 1361.19 418.383H1360.19ZM1309.77 467.956H1263.96V468.956H1309.77V467.956ZM1263.96 467.956C1255.32 467.956 1248.99 468.895 1244.8 470.911C1242.7 471.923 1241.12 473.216 1240.07 474.814C1239.01 476.415 1238.51 478.287 1238.51 480.419H1239.51C1239.51 478.449 1239.97 476.776 1240.9 475.364C1241.83 473.95 1243.26 472.765 1245.23 471.812C1249.21 469.897 1255.35 468.956 1263.96 468.956V467.956ZM1238.51 480.419C1238.51 483.462 1240.23 485.916 1243.19 487.584C1246.13 489.243 1250.33 490.147 1255.42 490.147V489.147C1250.43 489.147 1246.42 488.258 1243.68 486.713C1240.96 485.176 1239.51 483.016 1239.51 480.419H1238.51ZM1255.42 490.147H1313.01V489.147H1255.42V490.147ZM1313.01 490.147C1363.06 490.147 1395.74 519.733 1395.74 558.69H1396.74C1396.74 519.035 1363.45 489.147 1313.01 489.147V490.147ZM1395.74 558.69C1395.74 604.883 1353.43 645.861 1305.49 645.861V646.861C1353.95 646.861 1396.74 605.467 1396.74 558.69H1395.74ZM1223.47 572.021C1223.47 614.387 1258.61 645.836 1305.49 645.836V644.836C1259.06 644.836 1224.47 613.736 1224.47 572.021H1223.47ZM1305.49 645.836C1329.14 645.836 1349.93 635.433 1364.8 622.644C1372.24 616.248 1378.21 609.246 1382.32 602.63C1386.42 596.026 1388.71 589.758 1388.71 584.838H1387.71C1387.71 589.488 1385.53 595.567 1381.47 602.102C1377.41 608.623 1371.52 615.549 1364.15 621.886C1349.41 634.56 1328.84 644.836 1305.49 644.836V645.836ZM1388.71 584.838C1388.71 582.072 1388.45 579.607 1386.88 577.116C1385.32 574.642 1382.5 572.199 1377.52 569.364L1377.02 570.233C1381.95 573.038 1384.6 575.381 1386.03 577.649C1387.45 579.9 1387.71 582.135 1387.71 584.838H1388.71ZM1377.52 569.366L1266.27 505.279L1265.77 506.145L1377.02 570.232L1377.52 569.366ZM1265.8 505.259C1240.68 516.96 1223.47 542.427 1223.47 572.021H1224.47C1224.47 542.825 1241.45 517.706 1266.23 506.165L1265.8 505.259ZM1764.01 480.419L1764.51 480.45L1764.51 480.421L1764.51 480.393L1764.01 480.419ZM1773.41 486.229L1773.32 486.72L1773.32 486.721L1773.41 486.229ZM1899.88 542.626L1899.54 542.99L1900 543.425L1900.31 542.873L1899.88 542.626ZM1827.08 476.83H1827.58V476.822L1827.57 476.814L1827.08 476.83ZM1818.19 484.179L1818.32 483.697L1818.32 483.695L1818.19 484.179ZM1543.38 574.926L1542.88 574.924L1542.88 574.927L1543.38 574.926ZM1658.23 464.354L1658.23 464.854H1658.23V464.354ZM1713.94 478.539L1713.69 478.974L1714.91 479.663L1714.41 478.358L1713.94 478.539ZM1686.25 453.588L1686.09 454.059L1686.09 454.06L1686.25 453.588ZM1581.32 416.332L1581.16 416.803L1581.16 416.803L1581.32 416.332ZM1701.29 261.327L1701.57 260.911L1701.16 260.638L1700.88 261.043L1701.29 261.327ZM1701.81 261.669L1702.29 261.811L1702.39 261.457L1702.08 261.253L1701.81 261.669ZM1705.74 363.183V363.683H1706.34L1706.23 363.089L1705.74 363.183ZM1705.22 363.183L1704.74 363.288L1704.82 363.683H1705.22V363.183ZM1601.83 366.259L1602 365.79L1602 365.789L1601.83 366.259ZM1670.87 391.723L1670.7 392.192L1670.7 392.192L1670.87 391.723ZM1725.9 486.4L1725.41 486.295L1725.35 486.611L1725.61 486.803L1725.9 486.4ZM1773.41 486.742L1773.51 486.251L1773.5 486.25L1773.41 486.742ZM1763.5 480.419L1764 480.447L1764 480.421L1764 480.395L1763.5 480.419ZM1771.88 475.121V475.621H1772.45L1772.37 475.053L1771.88 475.121ZM1906.37 549.12L1906.2 548.65L1905.5 548.907L1906 549.459L1906.37 549.12ZM1658.23 465.38L1658.23 465.88H1658.23V465.38ZM1756.67 558.349L1756.18 558.477L1756.18 558.487L1756.19 558.496L1756.67 558.349ZM1753.08 553.051L1753.38 552.651L1753.36 552.635L1753.33 552.622L1753.08 553.051ZM1750.51 552.025L1750.61 551.535L1750.58 551.53L1750.56 551.527L1750.51 552.025ZM1737.87 558.007L1737.53 557.632L1737.53 557.64L1737.87 558.007ZM1728.98 560.741L1728.88 561.232L1728.9 561.236L1728.93 561.238L1728.98 560.741ZM1724.02 558.861L1723.74 559.273L1723.75 559.277L1724.02 558.861ZM1721.29 541.942L1720.88 541.661L1720.87 541.665L1721.29 541.942ZM1735.3 535.79L1735.24 536.287L1735.25 536.288L1735.3 535.79ZM1744.7 539.208L1744.41 539.617L1744.42 539.62L1744.7 539.208ZM1757.69 558.007L1757.22 558.17L1757.22 558.175L1757.69 558.007ZM1763.51 480.388C1763.41 482.02 1764.4 483.321 1766.08 484.33C1767.76 485.336 1770.22 486.118 1773.32 486.72L1773.51 485.739C1770.45 485.144 1768.13 484.389 1766.6 483.472C1765.08 482.558 1764.44 481.552 1764.51 480.45L1763.51 480.388ZM1773.32 486.721C1829.99 497.305 1873.99 518.977 1899.54 542.99L1900.22 542.262C1874.5 518.082 1830.31 496.346 1773.5 485.738L1773.32 486.721ZM1900.31 542.873C1903.87 536.626 1906.06 527.481 1907.36 514.135C1908.67 500.778 1909.09 483.155 1909.09 459.911H1908.09C1908.09 483.152 1907.67 500.733 1906.37 514.037C1905.06 527.351 1902.89 536.321 1899.44 542.379L1900.31 542.873ZM1909.09 459.911C1909.09 438.12 1908.72 421.279 1907.61 408.279C1906.51 395.287 1904.66 386.084 1901.7 379.595C1898.72 373.076 1894.61 369.292 1889.02 367.159C1883.46 365.04 1876.47 364.562 1867.75 364.562V365.562C1876.46 365.562 1883.29 366.046 1888.66 368.093C1893.99 370.125 1897.91 373.711 1900.79 380.01C1903.68 386.338 1905.51 395.4 1906.62 408.364C1907.72 421.319 1908.09 438.124 1908.09 459.911H1909.09ZM1867.75 364.562C1859.03 364.562 1852.04 365.04 1846.48 367.159C1840.89 369.292 1836.77 373.076 1833.8 379.595C1830.83 386.084 1828.99 395.287 1827.89 408.279C1826.78 421.279 1826.4 438.12 1826.4 459.911H1827.4C1827.4 438.124 1827.78 421.319 1828.88 408.364C1829.99 395.4 1831.82 386.338 1834.71 380.01C1837.58 373.711 1841.51 370.125 1846.84 368.093C1852.21 366.046 1859.03 365.562 1867.75 365.562V364.562ZM1826.4 459.911C1826.4 465.891 1826.4 471.539 1826.58 476.846L1827.57 476.814C1827.4 471.526 1827.4 465.894 1827.4 459.911H1826.4ZM1826.58 476.83C1826.58 480.804 1825.18 482.644 1823.56 483.454C1821.89 484.292 1819.81 484.11 1818.32 483.697L1818.05 484.66C1819.64 485.102 1822.01 485.347 1824.01 484.348C1826.06 483.321 1827.58 481.06 1827.58 476.83H1826.58ZM1818.32 483.695C1809.99 481.487 1792.98 475.134 1771.88 475.134V476.134C1792.81 476.134 1809.64 482.427 1818.06 484.662L1818.32 483.695ZM1771.88 475.134C1769.2 475.134 1767.08 475.519 1765.64 476.379C1764.91 476.814 1764.35 477.375 1763.98 478.069C1763.62 478.763 1763.47 479.56 1763.51 480.445L1764.51 480.393C1764.47 479.654 1764.6 479.042 1764.87 478.534C1765.13 478.026 1765.55 477.593 1766.15 477.238C1767.36 476.517 1769.26 476.134 1771.88 476.134V475.134ZM1652.08 683.117C1592.54 683.117 1544.05 634.635 1543.88 574.924L1542.88 574.927C1543.06 635.187 1591.98 684.117 1652.08 684.117V683.117ZM1543.88 574.927C1544.05 514.037 1595.25 464.684 1658.23 464.854L1658.23 463.854C1594.74 463.683 1543.06 513.452 1542.88 574.924L1543.88 574.927ZM1658.23 464.854C1679.85 464.854 1698.05 470.13 1713.69 478.974L1714.19 478.104C1698.39 469.175 1680.02 463.854 1658.23 463.854V464.854ZM1714.41 478.358C1709.9 466.749 1700.21 457.941 1686.42 453.116L1686.09 454.06C1699.65 458.805 1709.09 467.428 1713.47 478.72L1714.41 478.358ZM1686.42 453.117L1581.49 415.861L1581.16 416.803L1686.09 454.059L1686.42 453.117ZM1581.49 415.861C1552.47 405.508 1534.31 379.721 1534.31 348.485H1533.31C1533.31 380.14 1551.73 406.306 1581.16 416.803L1581.49 415.861ZM1534.31 348.485C1534.31 306.023 1571.19 261.485 1625.07 261.485V260.485C1570.61 260.485 1533.31 305.499 1533.31 348.485H1534.31ZM1625.07 261.485C1635.68 261.485 1647.25 264.119 1657.74 266.768C1662.98 268.09 1667.95 269.418 1672.38 270.413C1676.8 271.408 1680.73 272.081 1683.86 272.081V271.081C1680.85 271.081 1677.01 270.43 1672.6 269.438C1668.19 268.446 1663.24 267.125 1657.99 265.798C1647.5 263.15 1635.82 260.485 1625.07 260.485V261.485ZM1683.86 272.081C1687.18 272.081 1690.3 271.425 1693.27 269.775C1696.24 268.127 1699.02 265.503 1701.71 261.611L1700.88 261.043C1698.27 264.842 1695.58 267.345 1692.78 268.901C1689.99 270.455 1687.04 271.081 1683.86 271.081V272.081ZM1701.02 261.743L1701.53 262.085L1702.08 261.253L1701.57 260.911L1701.02 261.743ZM1701.33 261.527C1699.09 269.113 1697.89 280.105 1697.89 293.456H1698.89C1698.89 280.147 1700.08 269.264 1702.29 261.811L1701.33 261.527ZM1697.89 293.456C1697.89 312.805 1700.29 337.275 1705.25 363.276L1706.23 363.089C1701.28 337.137 1698.89 312.731 1698.89 293.456H1697.89ZM1705.74 362.683H1705.22V363.683H1705.74V362.683ZM1705.71 363.077C1698.44 329.346 1685.67 303.972 1671.04 287.02C1656.41 270.075 1639.88 261.511 1625.07 261.511V262.511C1639.49 262.511 1655.77 270.865 1670.28 287.673C1684.79 304.474 1697.49 329.685 1704.74 363.288L1705.71 363.077ZM1625.07 261.511C1607.46 261.511 1590.11 266.706 1577.14 275.157C1564.18 283.602 1555.53 295.358 1555.53 308.495H1556.53C1556.53 295.827 1564.88 284.34 1577.69 275.995C1590.48 267.655 1607.65 262.511 1625.07 262.511V261.511ZM1555.53 308.495C1555.53 332.165 1575.36 357.104 1601.66 366.728L1602 365.789C1576 356.273 1556.53 331.651 1556.53 308.495H1555.53ZM1601.66 366.728L1670.7 392.192L1671.05 391.254L1602 365.79L1601.66 366.728ZM1670.7 392.192C1706.26 405.293 1727.45 432.645 1727.45 465.551H1728.45C1728.45 432.148 1706.92 404.471 1671.05 391.253L1670.7 392.192ZM1727.45 465.551C1727.45 473.041 1726.77 480.012 1725.41 486.295L1726.39 486.506C1727.77 480.143 1728.45 473.1 1728.45 465.551H1727.45ZM1725.61 486.803C1757.64 510.4 1778.34 548.95 1798.99 581.75C1809.3 598.126 1819.6 613.071 1831.28 623.921C1842.98 634.781 1856.1 641.563 1872.02 641.563V640.563C1856.42 640.563 1843.53 633.93 1831.96 623.188C1820.38 612.435 1810.14 597.59 1799.83 581.218C1779.25 548.521 1758.43 509.739 1726.2 485.998L1725.61 486.803ZM1872.02 641.563C1887.35 641.563 1900.39 636.091 1909.59 626.651C1918.79 617.212 1924.13 603.837 1924.13 588.085H1923.13C1923.13 603.607 1917.88 616.722 1908.88 625.953C1899.88 635.184 1887.11 640.563 1872.02 640.563V641.563ZM1924.13 588.085C1924.13 569.036 1909.18 547.843 1882.97 529.315C1856.73 510.766 1819.11 494.806 1773.51 486.251L1773.32 487.234C1818.81 495.768 1856.29 511.68 1882.39 530.131C1908.52 548.603 1923.13 569.536 1923.13 588.085H1924.13ZM1773.5 486.25C1770.28 485.656 1767.83 484.858 1766.22 483.861C1764.62 482.87 1763.93 481.737 1764 480.447L1763 480.391C1762.9 482.177 1763.92 483.607 1765.69 484.71C1767.46 485.806 1770.05 486.632 1773.32 487.234L1773.5 486.25ZM1764 480.395C1763.92 478.77 1764.53 477.623 1765.77 476.849C1767.06 476.047 1769.09 475.621 1771.88 475.621V474.621C1769.02 474.621 1766.77 475.05 1765.25 475.999C1763.67 476.977 1762.91 478.479 1763 480.443L1764 480.395ZM1772.37 475.053C1771.69 470.12 1771.35 465.187 1771.35 459.911H1770.35C1770.35 465.231 1770.69 470.21 1771.38 475.189L1772.37 475.053ZM1771.35 459.911C1771.35 431.999 1780.79 408.163 1797.54 391.306C1814.29 374.45 1838.38 364.537 1867.75 364.537V363.537C1838.15 363.537 1813.79 373.533 1796.83 390.601C1779.88 407.668 1770.35 431.769 1770.35 459.911H1771.35ZM1867.75 364.537C1897.11 364.537 1921.2 374.45 1937.95 391.306C1954.7 408.163 1964.15 431.999 1964.15 459.911H1965.15C1965.15 431.769 1955.62 407.668 1938.66 390.601C1921.7 373.533 1897.34 363.537 1867.75 363.537V364.537ZM1964.15 459.911C1964.15 502.451 1942.21 535.571 1906.2 548.65L1906.54 549.59C1942.99 536.351 1965.15 502.82 1965.15 459.911H1964.15ZM1906 549.459C1917.92 562.393 1924.16 575.778 1924.16 588.085H1925.16C1925.16 575.44 1918.75 561.824 1906.74 548.781L1906 549.459ZM1924.16 588.085C1924.16 603.864 1918.82 617.235 1909.65 626.658C1900.48 636.081 1887.45 641.589 1872.02 641.589V642.589C1887.7 642.589 1900.99 636.988 1910.36 627.356C1919.73 617.724 1925.16 604.093 1925.16 588.085H1924.16ZM1872.02 641.589C1851.59 641.589 1835.82 630.666 1821.67 614.153C1807.51 597.624 1795.06 575.589 1781.25 553.47C1753.67 509.298 1720.73 464.88 1658.23 464.88V465.88C1720.14 465.88 1752.82 509.817 1780.4 553.999C1794.17 576.057 1806.68 598.199 1820.91 614.803C1835.15 631.423 1851.18 642.589 1872.02 642.589V641.589ZM1658.23 464.88C1595.08 464.708 1543.91 513.964 1543.91 574.926H1544.91C1544.91 514.55 1595.6 465.71 1658.23 465.88L1658.23 464.88ZM1543.91 574.926C1543.91 634.675 1592.33 683.092 1652.08 683.092V682.092C1592.88 682.092 1544.91 634.122 1544.91 574.926H1543.91ZM1652.08 683.092C1709.56 683.092 1760.07 638.3 1760.07 581.42H1759.07C1759.07 637.675 1709.09 682.092 1652.08 682.092V683.092ZM1760.07 581.42C1760.07 573.535 1759.39 565.446 1757.14 558.201L1756.19 558.496C1758.39 565.606 1759.07 573.582 1759.07 581.42H1760.07ZM1757.15 558.22C1756.43 555.524 1754.81 553.727 1753.38 552.651L1752.78 553.451C1754.08 554.426 1755.53 556.047 1756.18 558.477L1757.15 558.22ZM1753.33 552.622C1752.44 552.084 1751.53 551.719 1750.61 551.535L1750.41 552.516C1751.21 552.674 1752.01 552.992 1752.82 553.48L1753.33 552.622ZM1750.56 551.527C1746.58 551.166 1741.99 553.688 1737.53 557.632L1738.2 558.381C1742.63 554.465 1746.93 552.202 1750.47 552.523L1750.56 551.527ZM1737.53 557.64C1735.26 559.747 1732.16 560.573 1729.03 560.244L1728.93 561.238C1732.29 561.593 1735.69 560.71 1738.21 558.373L1737.53 557.64ZM1729.08 560.251C1727.4 559.915 1725.76 559.419 1724.3 558.445L1723.75 559.277C1725.36 560.355 1727.14 560.884 1728.88 561.232L1729.08 560.251ZM1724.31 558.449C1719.09 554.864 1718.08 547.662 1721.71 542.22L1720.87 541.665C1716.98 547.502 1718.02 555.339 1723.74 559.273L1724.31 558.449ZM1721.7 542.224C1724.5 538.108 1729.62 535.624 1735.24 536.287L1735.36 535.293C1729.37 534.588 1723.89 537.232 1720.88 541.661L1721.7 542.224ZM1735.25 536.288C1738.6 536.622 1741.59 537.621 1744.41 539.616L1744.99 538.8C1742.01 536.693 1738.85 535.642 1735.35 535.293L1735.25 536.288ZM1744.42 539.62C1749.27 542.967 1754 548.852 1757.22 558.17L1758.16 557.844C1754.89 548.362 1750.05 542.285 1744.99 538.796L1744.42 539.62ZM1757.22 558.175C1759.75 565.263 1760.1 573.559 1760.1 581.42H1761.1C1761.1 573.558 1760.76 565.106 1758.16 557.839L1757.22 558.175ZM1760.1 581.42C1760.1 638.187 1709.43 683.117 1652.08 683.117V684.117C1709.91 684.117 1761.1 638.813 1761.1 581.42H1760.1ZM2221.68 551H2221.18V551.604L2221.77 551.491L2221.68 551ZM2221.68 550.658L2221.57 550.171L2221.18 550.259V550.658H2221.68ZM2212.79 371.898H2212.29V372.328L2212.72 372.393L2212.79 371.898ZM2212.79 371.557L2212.85 371.06L2212.29 370.991V371.557H2212.79ZM2245.95 373.949L2245.94 374.449H2245.95V373.949ZM2299.61 360.277L2299.96 359.924L2299.65 359.61L2299.3 359.884L2299.61 360.277ZM2299.78 360.448H2300.28V360.241L2300.13 360.095L2299.78 360.448ZM2299.78 398.046H2299.28V399.443L2300.17 398.363L2299.78 398.046ZM2418.73 512.377H2418.23V512.804L2418.65 512.871L2418.73 512.377ZM2514.94 621.581L2515.44 621.582L2515.44 621.58L2514.94 621.581ZM2300.63 604.662L2300.16 604.499L2300.16 604.504L2300.63 604.662ZM2313.79 585.692L2313.51 585.28L2313.51 585.281L2313.79 585.692ZM2323.02 582.274L2322.96 581.778L2322.96 581.779L2322.95 581.78L2323.02 582.274ZM2337.04 588.427L2337.45 588.147L2337.45 588.146L2337.04 588.427ZM2334.3 605.517L2334.58 605.933L2334.59 605.928L2334.59 605.923L2334.3 605.517ZM2329.35 607.226L2329.3 606.728L2329.29 606.728L2329.35 607.226ZM2320.46 604.662L2320.13 605.037L2320.13 605.042L2320.46 604.662ZM2307.81 598.681L2307.77 598.183L2307.74 598.185L2307.71 598.19L2307.81 598.681ZM2305.42 599.535L2305.7 599.951L2305.71 599.943L2305.72 599.935L2305.42 599.535ZM2301.66 605.004L2302.14 605.141L2302.14 605.133L2302.15 605.125L2301.66 605.004ZM2044.8 617.479L2045.3 617.481V617.479H2044.8ZM2068.04 551L2068.43 551.311L2068.92 550.703L2068.16 550.515L2068.04 551ZM2067.36 550.829L2067.21 551.305L2067.22 551.31L2067.24 551.314L2067.36 550.829ZM2197.24 475.121L2196.75 475.053L2196.67 475.621H2197.24V475.121ZM2205.62 480.419L2205.12 480.395L2205.11 480.421L2205.12 480.447L2205.62 480.419ZM2195.7 486.571L2195.61 486.08L2195.61 486.08L2195.7 486.571ZM2045.83 617.479L2046.33 617.481V617.479H2045.83ZM2321.14 549.462L2321.52 549.795L2322.13 549.112L2321.22 548.968L2321.14 549.462ZM2071.8 546.215L2071.42 546.54L2071.43 546.555L2071.45 546.568L2071.8 546.215ZM2071.97 546.386L2071.62 546.739L2072 547.115L2072.35 546.717L2071.97 546.386ZM2195.7 486.229L2195.79 486.721L2195.8 486.72L2195.7 486.229ZM2205.1 480.419L2204.6 480.393L2204.6 480.421L2204.6 480.45L2205.1 480.419ZM2150.93 484.179L2150.8 483.695L2150.79 483.697L2150.93 484.179ZM2142.04 476.83L2141.54 476.814L2141.54 476.822V476.83H2142.04ZM2321.48 548.949L2321.4 549.442L2321.67 549.489L2321.86 549.282L2321.48 548.949ZM2370.87 515.111L2371.02 515.588L2371.37 515.478V515.111H2370.87ZM2299.78 399.071L2299.4 398.75L2299.28 398.889V399.071H2299.78ZM2340.62 551H2340.12V551.604L2340.72 551.491L2340.62 551ZM2340.62 550.658L2340.51 550.171L2340.12 550.259V550.658H2340.62ZM2370.87 524.511L2370.77 524.021L2370.37 524.105V524.511H2370.87ZM2410.35 520.751L2410.36 520.251L2410.36 520.251L2410.35 520.751ZM2448.97 550.658H2449.47V550.26L2449.09 550.171L2448.97 550.658ZM2448.97 551L2448.88 551.491L2449.47 551.605V551H2448.97ZM2222.18 551V550.658H2221.18V551H2222.18ZM2221.79 551.146C2226.3 550.124 2230.44 549.465 2234.13 548.841C2237.81 548.22 2241.06 547.633 2243.75 546.754C2246.45 545.875 2248.63 544.686 2250.14 542.826C2251.65 540.958 2252.43 538.474 2252.43 535.106H2251.43C2251.43 538.318 2250.69 540.556 2249.36 542.197C2248.03 543.845 2246.05 544.953 2243.44 545.804C2240.83 546.655 2237.66 547.232 2233.97 547.855C2230.29 548.477 2226.11 549.141 2221.57 550.171L2221.79 551.146ZM2252.43 535.106V388.476H2251.43V535.106H2252.43ZM2252.43 388.476C2252.43 385.107 2251.65 382.555 2249.99 380.588C2248.35 378.633 2245.88 377.319 2242.63 376.313C2239.39 375.307 2235.31 374.592 2230.37 373.874C2225.42 373.152 2219.62 372.43 2212.87 371.404L2212.72 372.393C2219.46 373.417 2225.31 374.148 2230.23 374.863C2235.16 375.582 2239.18 376.287 2242.34 377.268C2245.5 378.249 2247.76 379.488 2249.23 381.233C2250.69 382.967 2251.43 385.265 2251.43 388.476H2252.43ZM2213.29 371.898V371.557H2212.29V371.898H2213.29ZM2212.73 372.053C2225.23 373.593 2236.18 374.278 2245.94 374.449L2245.96 373.449C2236.23 373.279 2225.31 372.596 2212.85 371.06L2212.73 372.053ZM2245.95 374.449C2271.81 374.449 2288.68 369.484 2299.92 360.671L2299.3 359.884C2288.32 368.502 2271.7 373.449 2245.95 373.449V374.449ZM2299.26 360.631L2299.43 360.802L2300.13 360.095L2299.96 359.924L2299.26 360.631ZM2299.28 360.448V398.046H2300.28V360.448H2299.28ZM2300.17 398.363C2317.36 377.428 2334.32 368.297 2356.35 368.297V367.297C2333.95 367.297 2316.72 376.623 2299.39 397.729L2300.17 398.363ZM2356.35 368.297C2392.11 368.297 2418.23 388.023 2418.23 414.281H2419.23C2419.23 387.219 2392.37 367.297 2356.35 367.297V368.297ZM2418.23 414.281V512.377H2419.23V414.281H2418.23ZM2418.65 512.871C2472.77 521.38 2514.27 566.815 2514.44 621.583L2515.44 621.58C2515.27 566.288 2473.38 520.464 2418.8 511.883L2418.65 512.871ZM2514.44 621.58C2514.27 681.291 2465.79 729.772 2406.25 729.772V730.772C2466.34 730.772 2515.27 681.842 2515.44 621.582L2514.44 621.58ZM2406.25 729.772C2348.9 729.772 2298.4 684.844 2298.4 628.075H2297.4C2297.4 685.467 2348.42 730.772 2406.25 730.772V729.772ZM2298.4 628.075C2298.4 620.216 2298.74 611.914 2301.11 604.82L2300.16 604.504C2297.74 611.766 2297.4 620.212 2297.4 628.075H2298.4ZM2301.11 604.825C2304.33 595.509 2309.22 589.452 2314.08 586.104L2313.51 585.281C2308.45 588.769 2303.44 595.016 2300.16 604.499L2301.11 604.825ZM2314.08 586.104C2316.73 584.278 2319.73 583.273 2323.1 582.769L2322.95 581.78C2319.48 582.301 2316.32 583.347 2313.51 585.28L2314.08 586.104ZM2323.08 582.771C2328.71 582.109 2333.82 584.592 2336.62 588.708L2337.45 588.146C2334.44 583.716 2328.96 581.073 2322.96 581.778L2323.08 582.771ZM2336.62 588.707C2340.41 594.306 2339.25 601.347 2334.01 605.111L2334.59 605.923C2340.29 601.825 2341.52 594.168 2337.45 588.147L2336.62 588.707ZM2334.02 605.101C2332.56 606.076 2331.1 606.564 2329.3 606.728L2329.39 607.724C2331.35 607.546 2332.97 607.008 2334.58 605.933L2334.02 605.101ZM2329.29 606.728C2326.16 607.058 2323.06 606.231 2320.78 604.282L2320.13 605.042C2322.65 607.194 2326.03 608.077 2329.4 607.723L2329.29 606.728ZM2320.79 604.288C2316.33 600.343 2311.75 597.821 2307.77 598.183L2307.86 599.179C2311.4 598.857 2315.7 601.12 2320.13 605.037L2320.79 604.288ZM2307.71 598.19C2306.88 598.357 2305.91 598.543 2305.12 599.135L2305.72 599.935C2306.3 599.502 2307.03 599.346 2307.91 599.171L2307.71 598.19ZM2305.14 599.119C2303.51 600.205 2301.89 602.013 2301.18 604.883L2302.15 605.125C2302.79 602.526 2304.25 600.917 2305.7 599.951L2305.14 599.119ZM2301.18 604.867C2299.11 612.106 2298.43 620.19 2298.43 628.075H2299.43C2299.43 620.238 2300.11 612.257 2302.14 605.141L2301.18 604.867ZM2298.43 628.075C2298.43 684.954 2348.76 729.747 2406.25 729.747V728.747C2349.24 728.747 2299.43 684.331 2299.43 628.075H2298.43ZM2406.25 729.747C2466 729.747 2514.42 681.33 2514.42 621.581H2513.42C2513.42 680.778 2465.45 728.747 2406.25 728.747V729.747ZM2514.42 621.581C2514.42 560.619 2463.25 511.364 2400.1 511.364V512.364C2462.73 512.364 2513.42 561.206 2513.42 621.581H2514.42ZM2400.1 511.364C2368.83 511.364 2345.46 524.7 2326.09 544.654C2306.74 564.59 2291.34 591.159 2276 617.656C2260.64 644.18 2245.34 670.633 2226.15 690.463C2206.98 710.275 2183.96 723.449 2153.15 723.449V724.449C2184.29 724.449 2207.56 711.113 2226.87 691.159C2246.16 671.223 2261.52 644.654 2276.86 618.157C2292.22 591.634 2307.55 565.181 2326.81 545.351C2346.04 525.539 2369.16 512.364 2400.1 512.364V511.364ZM2153.15 723.449C2093.43 723.449 2045.13 675.984 2045.3 617.481L2044.3 617.478C2044.13 676.553 2092.9 724.449 2153.15 724.449V723.449ZM2045.3 617.479C2045.3 592.474 2053.46 570.195 2068.43 551.311L2067.65 550.689C2052.54 569.745 2044.3 592.241 2044.3 617.479H2045.3ZM2068.16 550.515L2067.48 550.344L2067.24 551.314L2067.92 551.485L2068.16 550.515ZM2067.51 550.353C2028.6 537.949 2004.97 503.977 2004.97 459.911H2003.97C2003.97 504.37 2027.84 538.758 2067.21 551.305L2067.51 550.353ZM2004.97 459.911C2004.97 431.999 2014.41 408.163 2031.16 391.306C2047.91 374.45 2072 364.537 2101.37 364.537V363.537C2071.77 363.537 2047.41 373.533 2030.45 390.601C2013.49 407.668 2003.97 431.769 2003.97 459.911H2004.97ZM2101.37 364.537C2130.73 364.537 2154.82 374.45 2171.57 391.306C2188.32 408.163 2197.77 431.999 2197.77 459.911H2198.77C2198.77 431.769 2189.24 407.668 2172.28 390.601C2155.32 373.533 2130.96 363.537 2101.37 363.537V364.537ZM2197.77 459.911C2197.77 465.187 2197.43 470.12 2196.75 475.053L2197.74 475.189C2198.42 470.21 2198.77 465.231 2198.77 459.911H2197.77ZM2197.24 475.621C2200.03 475.621 2202.05 476.047 2203.34 476.849C2204.59 477.623 2205.19 478.77 2205.12 480.395L2206.11 480.443C2206.21 478.479 2205.44 476.977 2203.87 475.999C2202.34 475.05 2200.09 474.621 2197.24 474.621V475.621ZM2205.12 480.447C2205.19 481.732 2204.5 482.821 2202.9 483.77C2201.29 484.728 2198.84 485.484 2195.61 486.08L2195.79 487.063C2199.06 486.462 2201.65 485.68 2203.41 484.63C2205.19 483.571 2206.21 482.182 2206.11 480.391L2205.12 480.447ZM2195.61 486.08C2104.45 503.184 2045.33 550.456 2045.33 617.479H2046.33C2046.33 551.202 2104.78 504.138 2195.8 487.063L2195.61 486.08ZM2045.33 617.478C2045.15 675.869 2093.41 723.424 2153.15 723.424V722.424C2093.94 722.424 2046.16 675.301 2046.33 617.481L2045.33 617.478ZM2153.15 723.424C2198.27 723.424 2226.77 695.127 2250.76 659.35C2262.76 641.465 2273.66 621.662 2284.94 602.559C2296.24 583.44 2307.92 565.009 2321.52 549.795L2320.77 549.129C2307.11 564.42 2295.38 582.924 2284.08 602.05C2272.77 621.19 2261.91 640.94 2249.93 658.793C2225.99 694.495 2197.75 722.424 2153.15 722.424V723.424ZM2321.22 548.968C2306.15 546.571 2291.09 545.544 2275.85 545.544V546.544C2291.04 546.544 2306.05 547.568 2321.06 549.956L2321.22 548.968ZM2275.85 545.544C2257.54 545.544 2239.56 547.084 2221.59 550.509L2221.77 551.491C2239.68 548.08 2257.6 546.544 2275.85 546.544V545.544ZM2071.45 546.568L2071.62 546.739L2072.33 546.032L2072.16 545.861L2071.45 546.568ZM2072.35 546.717C2098.05 517.608 2141 496.964 2195.79 486.721L2195.61 485.738C2140.69 496.003 2097.5 516.717 2071.6 546.055L2072.35 546.717ZM2195.8 486.72C2198.89 486.118 2201.35 485.336 2203.03 484.33C2204.71 483.321 2205.7 482.02 2205.6 480.388L2204.6 480.45C2204.67 481.552 2204.04 482.558 2202.52 483.472C2200.99 484.389 2198.66 485.144 2195.61 485.739L2195.8 486.72ZM2205.6 480.445C2205.65 479.56 2205.5 478.763 2205.13 478.069C2204.77 477.375 2204.21 476.814 2203.48 476.379C2202.04 475.519 2199.92 475.134 2197.24 475.134V476.134C2199.86 476.134 2201.76 476.517 2202.97 477.238C2203.56 477.593 2203.98 478.026 2204.25 478.534C2204.51 479.042 2204.64 479.654 2204.6 480.393L2205.6 480.445ZM2197.24 475.134C2176.14 475.134 2159.12 481.487 2150.8 483.695L2151.06 484.662C2159.48 482.427 2176.31 476.134 2197.24 476.134V475.134ZM2150.79 483.697C2149.31 484.11 2147.23 484.292 2145.55 483.454C2143.94 482.644 2142.54 480.804 2142.54 476.83H2141.54C2141.54 481.06 2143.05 483.321 2145.11 484.348C2147.1 485.347 2149.47 485.102 2151.06 484.66L2150.79 483.697ZM2142.54 476.846C2142.71 471.539 2142.71 465.891 2142.71 459.911H2141.71C2141.71 465.894 2141.71 471.526 2141.54 476.814L2142.54 476.846ZM2142.71 459.911C2142.71 438.12 2142.34 421.279 2141.23 408.279C2140.12 395.287 2138.28 386.084 2135.32 379.595C2132.34 373.076 2128.23 369.292 2122.64 367.159C2117.08 365.04 2110.08 364.562 2101.37 364.562V365.562C2110.08 365.562 2116.91 366.046 2122.28 368.093C2127.61 370.125 2131.53 373.711 2134.41 380.01C2137.3 386.338 2139.13 395.4 2140.23 408.364C2141.34 421.319 2141.71 438.124 2141.71 459.911H2142.71ZM2101.37 364.562C2092.65 364.562 2085.66 365.04 2080.1 367.159C2074.5 369.292 2070.39 373.076 2067.42 379.595C2064.45 386.084 2062.61 395.287 2061.5 408.279C2060.4 421.279 2060.02 438.12 2060.02 459.911H2061.02C2061.02 438.124 2061.4 421.319 2062.5 408.364C2063.6 395.4 2065.44 386.338 2068.33 380.01C2071.2 373.711 2075.12 370.125 2080.46 368.093C2085.82 366.046 2092.65 365.562 2101.37 365.562V364.562ZM2060.02 459.911C2060.02 485.888 2060.58 504.842 2062.27 518.633C2063.96 532.409 2066.79 541.124 2071.42 546.54L2072.18 545.89C2067.75 540.71 2064.95 532.25 2063.26 518.511C2061.58 504.787 2061.02 485.887 2061.02 459.911H2060.02ZM2299.28 535.106C2299.28 537.948 2299.84 540.162 2300.92 541.907C2302 543.654 2303.58 544.886 2305.55 545.813C2307.5 546.736 2309.86 547.365 2312.51 547.901C2315.17 548.437 2318.17 548.889 2321.4 549.442L2321.57 548.456C2318.31 547.898 2315.35 547.453 2312.71 546.921C2310.08 546.389 2307.82 545.779 2305.98 544.908C2304.14 544.04 2302.73 542.922 2301.77 541.38C2300.81 539.835 2300.28 537.819 2300.28 535.106H2299.28ZM2321.86 549.282C2335.66 533.776 2351.65 521.706 2371.02 515.588L2370.72 514.635C2351.13 520.821 2335 533.018 2321.11 548.617L2321.86 549.282ZM2371.37 515.111V414.281H2370.37V515.111H2371.37ZM2371.37 414.281C2371.37 401.566 2368.5 390.658 2363.63 382.912C2358.76 375.161 2351.86 370.544 2343.87 370.544V371.544C2351.43 371.544 2358.04 375.899 2362.78 383.444C2367.53 390.993 2370.37 401.704 2370.37 414.281H2371.37ZM2343.87 370.544C2330.31 370.544 2314.63 380.605 2299.4 398.75L2300.16 399.393C2315.35 381.307 2330.77 371.544 2343.87 371.544V370.544ZM2299.28 399.071V535.106H2300.28V399.071H2299.28ZM2341.12 551V550.658H2340.12V551H2341.12ZM2340.74 551.146C2345.25 550.124 2349.39 549.465 2353.08 548.841C2356.76 548.22 2360.01 547.633 2362.7 546.754C2365.39 545.875 2367.58 544.686 2369.08 542.826C2370.6 540.958 2371.37 538.474 2371.37 535.106H2370.37C2370.37 538.318 2369.64 540.556 2368.31 542.197C2366.97 543.845 2364.99 544.953 2362.39 545.804C2359.78 546.655 2356.6 547.232 2352.91 547.855C2349.23 548.477 2345.06 549.141 2340.51 550.171L2340.74 551.146ZM2371.37 535.106V524.511H2370.37V535.106H2371.37ZM2370.98 525C2383.93 522.274 2396.88 521.08 2410.35 521.251L2410.36 520.251C2396.82 520.08 2383.8 521.279 2370.77 524.021L2370.98 525ZM2410.34 521.251C2413.61 521.335 2415.55 522.09 2416.68 523.275C2417.8 524.46 2418.23 526.18 2418.23 528.441H2419.23C2419.23 526.088 2418.79 524.049 2417.4 522.585C2416.01 521.121 2413.75 520.338 2410.36 520.251L2410.34 521.251ZM2418.23 528.441V535.106H2419.23V528.441H2418.23ZM2418.23 535.106C2418.23 538.476 2419.01 540.96 2420.54 542.828C2422.06 544.687 2424.26 545.875 2426.97 546.754C2429.67 547.633 2432.92 548.22 2436.59 548.841C2440.28 549.464 2444.39 550.124 2448.86 551.146L2449.09 550.171C2444.58 549.141 2440.43 548.477 2436.76 547.855C2433.08 547.232 2429.89 546.655 2427.28 545.803C2424.66 544.952 2422.66 543.844 2421.32 542.195C2419.97 540.554 2419.23 538.316 2419.23 535.106H2418.23ZM2448.47 550.658V551H2449.47V550.658H2448.47ZM2449.07 550.509C2431.26 547.084 2413.11 545.544 2394.8 545.544V546.544C2413.06 546.544 2431.14 548.08 2448.88 551.491L2449.07 550.509ZM2394.8 545.544C2376.49 545.544 2358.51 547.084 2340.53 550.509L2340.72 551.491C2358.63 548.08 2376.54 546.544 2394.8 546.544V545.544Z" fill="#363636"/>
</svg>
