<svg width="3175" height="854" viewBox="0 0 3175 854" fill="none" xmlns="http://www.w3.org/2000/svg">
<g filter="url(#filter0_d_669_2)">
<path d="M1583.54 666V665.658C1601.49 661.557 1613.79 663.266 1613.79 650.106V397.348C1613.79 384.188 1601.49 385.897 1583.54 381.796V381.454C1601.49 384.872 1619.43 386.41 1637.72 386.41C1656.01 386.41 1673.95 384.872 1691.89 381.454V381.796C1673.95 385.897 1661.65 384.188 1661.65 397.348V521.249H1788.11V397.348C1788.11 384.188 1775.81 385.897 1757.86 381.796V381.454C1775.81 384.872 1793.75 386.41 1812.04 386.41C1830.32 386.41 1848.27 384.872 1866.21 381.454V381.796C1848.27 385.897 1835.96 384.188 1835.96 397.348V529.965C1864.33 534.408 1890.31 546.542 1911.67 564.145C1921.24 558.847 1933.37 556.112 1948.07 556.112C1949.95 556.112 1958.5 555.941 1960.89 555.941C1984.99 555.941 1999.85 546.542 1999.85 531.161V529.965C1999.85 494.076 1992.5 480.062 1973.54 480.062C1954.57 480.062 1949.61 485.702 1949.61 506.381C1949.61 510.482 1950.29 514.755 1950.29 518.856C1950.29 531.161 1942.43 540.048 1928.59 540.048C1916.97 540.048 1907.91 532.187 1907.91 521.42C1907.91 499.374 1937.13 479.037 1973.54 479.037C2018.65 479.037 2047.71 501.083 2047.71 535.092V589.608C2053.34 589.608 2056.08 591.317 2056.08 594.906C2056.08 597.982 2052.66 599.862 2046.17 601.059C1966.19 618.148 1986.35 845.272 1810.84 845.272C1723.51 845.272 1652.08 773.837 1652.08 686.508C1652.08 677.963 1652.76 669.589 1654.13 661.386C1648.66 661.215 1643.19 661.044 1637.72 661.044C1619.43 661.044 1601.49 662.582 1583.54 666ZM1661.65 522.274V632.504C1681.47 578.5 1729.66 537.997 1788.11 529.623V522.274H1661.65ZM1757.86 666V665.658C1775.81 661.557 1788.11 663.266 1788.11 650.106V550.131C1788.11 544.32 1788.96 538.339 1798.88 537.826C1811.35 536.972 1823.66 537.655 1835.96 539.364V650.106C1835.96 663.266 1848.27 661.557 1866.21 665.658V666C1848.27 662.582 1830.32 661.044 1812.04 661.044C1793.75 661.044 1775.81 662.582 1757.86 666ZM1943.8 670.785C1912.01 670.785 1884.33 650.619 1884.33 614.901C1884.33 599.521 1888.43 586.02 1896.97 575.937C1901.59 570.468 1906.71 568.93 1912.52 574.569C1920.04 581.576 1927.22 588.925 1933.89 596.786C1932.86 602.426 1932.35 608.578 1932.35 614.901C1932.35 646.688 1946.7 666.342 1962.94 666.342C1963.96 666.342 1966.02 665.658 1967.04 665.146C1956.62 588.412 1890.31 528.939 1810.84 528.939C1724.02 528.939 1653.1 599.862 1653.1 686.508C1653.1 773.153 1724.02 844.247 1810.84 844.247C1986.35 844.247 1964.31 617.807 2046.17 600.717C2052.32 599.691 2055.74 597.641 2055.57 594.906C2055.74 591.659 2053 590.121 2047.71 590.121C2026.68 590.121 2017.11 596.615 2008.74 598.837C2005.66 599.691 1999.85 599.691 1999.85 591.488V537.997C1996.09 550.131 1981.74 556.967 1960.89 556.967C1951.15 556.967 1940.55 569.955 1935.6 588.754C1956.96 615.756 1969.6 649.765 1969.6 686.508C1969.6 705.648 1962.26 717.611 1953.54 723.593C1950.63 725.644 1947.56 726.669 1944.14 727.011C1938.33 727.694 1933.03 725.302 1930.13 721.029C1926.37 715.219 1927.39 707.87 1932.86 704.11C1934.4 703.085 1936.11 702.401 1937.82 702.23C1941.06 701.718 1944.31 702.743 1946.7 704.794C1951.15 708.725 1955.59 711.117 1959.35 710.775C1960.38 710.604 1961.06 710.434 1961.91 709.921C1966.02 706.845 1968.58 697.274 1968.58 686.508C1968.58 679.501 1968.07 672.836 1967.21 666C1960.03 669.76 1951.32 670.785 1943.8 670.785ZM2157.93 666L2101.71 507.235C2096.41 492.196 2094.19 491 2072.31 486.898V486.557C2089.23 489.975 2106.15 491.684 2122.56 491.684C2139.31 491.684 2155.54 489.975 2170.58 486.557V486.898C2154.35 490.316 2150.59 492.709 2150.59 498.52C2150.59 500.741 2151.1 503.646 2152.47 507.235L2195.02 626.181L2229.71 534.579L2219.97 507.235C2214.67 492.196 2212.45 491 2190.58 486.898V486.557C2207.5 489.975 2224.41 491.684 2240.82 491.684C2257.57 491.684 2273.8 489.975 2288.84 486.557V486.898C2272.61 490.316 2268.85 492.709 2268.85 498.52C2268.85 500.741 2269.36 503.646 2270.73 507.235L2313.28 626.181L2350.71 527.23C2352.93 521.42 2354.64 516.122 2354.47 511.508C2354.47 498.178 2344.73 489.804 2322.68 486.898V486.557C2338.23 488.607 2350.02 489.633 2360.45 489.633C2370.36 489.633 2379.08 488.607 2388.65 486.557V486.898C2372.07 489.975 2361.3 501.938 2351.73 527.23L2299.27 666H2276.2L2230.22 535.946L2181.01 666H2157.93ZM2893.48 486.044C2880.15 486.044 2864.6 495.956 2849.39 514.071V591.83C2849.39 600.033 2843.58 600.033 2840.5 599.179C2832.13 596.957 2822.56 590.634 2801.54 590.634C2796.24 590.634 2793.51 592.172 2793.68 595.419C2793.51 598.153 2796.92 600.033 2803.08 601.229C2853.49 610.629 2894.17 628.915 2920.48 649.765V529.281C2920.48 503.988 2909.03 486.044 2893.48 486.044ZM2699.17 451.181C2681.4 451.181 2667.04 436.825 2667.04 418.71C2667.04 401.107 2681.4 386.41 2699.17 386.41C2717.11 386.41 2731.81 401.107 2731.81 418.71C2731.81 436.825 2717.11 451.181 2699.17 451.181ZM2644.82 666V665.658C2662.77 661.557 2675.07 663.437 2675.07 650.106V604.477C2675.07 597.641 2676.95 591.83 2686.18 592.172C2698.49 592.514 2710.79 594.394 2722.92 597.47V650.106C2722.92 660.531 2730.62 661.728 2742.75 663.778L2742.58 664.291C2727.71 662.069 2713.01 661.044 2698.49 661.044C2680.37 661.044 2662.43 662.753 2644.82 666ZM2453.25 762.558C2409.84 762.558 2374.46 727.011 2374.46 683.773C2374.46 651.132 2394.46 619.687 2422.83 611.142V398.202C2422.83 385.043 2410.69 385.897 2383.69 381.796C2291.75 364.706 2218.43 301.132 2218.43 200.131C2218.43 97.9336 2307.98 11.2881 2413.6 11.2881C2661.23 11.2881 2650.12 442.465 2882.03 442.465C2991.41 442.465 3080.96 352.914 3080.96 243.368C3080.96 133.993 2991.41 44.4424 2882.03 44.4424C2813.5 44.4424 2757.96 88.5342 2757.96 143.051C2757.96 150.741 2758.64 158.773 2760.69 165.951C2761.55 168.686 2762.92 170.395 2764.45 171.42C2765.14 171.933 2765.99 172.274 2766.85 172.274C2770.61 172.787 2775.22 170.224 2779.66 166.293C2781.88 164.242 2785.3 163.388 2788.38 163.729C2790.26 163.9 2791.97 164.584 2793.33 165.609C2798.8 169.369 2800 176.889 2796.07 182.528C2793.16 186.801 2787.87 189.364 2782.06 188.681C2778.64 188.339 2775.56 187.143 2772.83 185.263C2767.87 181.845 2763.09 175.692 2759.84 166.464C2757.28 159.115 2756.93 151.254 2756.93 143.393C2756.93 88.1924 2812.99 43.417 2882.03 43.417C2991.92 43.417 3081.98 133.48 3081.98 243.368C3081.98 353.427 2991.92 443.49 2882.03 443.49C2649.1 443.49 2660.03 12.3135 2413.6 12.3135C2308.5 12.3135 2219.46 98.4463 2219.46 200.131C2219.46 300.106 2292.43 364.364 2383.69 381.454C2396 382.821 2406.93 383.676 2416.67 383.676C2442.48 383.676 2459.4 378.72 2470.51 370.004L2470.68 370.175L2471.02 583.627C2471.02 602.255 2440.09 607.382 2422.83 612.338C2394.97 620.712 2375.49 651.815 2375.49 683.773C2375.49 726.498 2410.35 761.532 2453.25 761.532C2495.97 761.532 2531.01 726.498 2531.01 683.773C2531.01 669.931 2527.08 656.771 2520.75 645.321C2516.48 637.46 2510.84 630.966 2503.66 626.01C2501.27 624.472 2499.22 623.617 2497.51 623.617C2496.66 623.617 2495.8 623.959 2494.95 624.301C2491.7 626.181 2489.31 630.624 2487.77 636.435C2487.08 639.511 2484.86 642.074 2481.96 643.612C2480.42 644.467 2478.54 644.809 2476.83 644.809C2470.17 644.638 2465.04 639.169 2465.04 632.333C2465.04 627.035 2467.94 622.079 2473.24 619.345C2476.15 617.807 2479.39 616.952 2482.81 616.952C2488.79 616.952 2495.63 619.687 2504 625.155C2511.35 629.94 2517.16 636.947 2521.61 644.809C2524.68 650.448 2527.25 656.43 2529.13 662.753C2539.04 660.019 2541.6 658.31 2541.6 655.404C2541.6 654.208 2540.92 652.67 2539.38 650.961L2477.17 586.02L2476.66 585.507L2514.26 552.011C2526.73 540.048 2545.36 523.471 2545.36 506.552C2545.36 498.007 2536.13 491 2519.56 487.069L2519.73 486.557C2535.28 490.829 2551.68 492.709 2567.07 492.538C2583.3 492.538 2598.34 490.487 2609.45 486.557L2609.62 487.069C2580.05 498.007 2550.15 518.686 2514.94 552.694L2512.21 555.258L2587.23 636.947C2604.83 606.015 2637.13 583.969 2675.07 580.038V503.305C2675.07 490.146 2662.94 491 2635.94 486.898V486.557C2648.41 488.095 2659.52 488.778 2669.26 488.778C2694.9 488.778 2711.65 483.822 2722.75 475.277H2722.92V584.652C2815.21 613.876 2829.05 756.063 2901.68 756.063C2932.1 756.063 2953.3 734.359 2953.3 703.085C2953.3 665.487 2894.17 618.832 2803.08 601.742C2796.58 600.546 2792.99 598.495 2793.16 595.419C2792.99 591.83 2795.9 590.121 2801.54 590.121V503.476C2801.54 490.316 2789.4 491 2762.4 486.898V486.557C2774.88 488.095 2785.82 488.778 2795.56 488.949C2821.19 488.949 2838.11 483.993 2849.22 475.277L2849.39 475.448V513.046C2866.65 492.025 2883.74 482.797 2905.96 482.797C2941.85 482.797 2968.33 502.621 2968.33 529.281V650.106C2968.33 663.266 2980.64 661.557 2998.58 665.658V666C2980.64 662.582 2962.7 661.044 2944.41 661.044C2940.48 661.044 2936.55 661.044 2933.3 661.215C2946.97 675.058 2954.32 689.584 2954.32 703.085C2954.32 734.872 2932.79 757.089 2901.68 757.089C2819.14 757.089 2812.3 580.38 2687.89 580.38C2625 580.209 2574.07 629.257 2574.07 689.926C2574.07 749.398 2622.27 797.592 2681.74 797.592C2738.99 797.592 2789.23 752.987 2789.23 696.42C2789.23 688.559 2788.55 680.526 2786.33 673.349C2785.64 670.785 2784.11 669.076 2782.74 668.051C2781.88 667.538 2781.03 667.196 2780.18 667.025C2776.42 666.684 2771.97 669.076 2767.53 673.007C2765.14 675.229 2761.89 676.083 2758.64 675.741C2756.93 675.399 2755.22 674.887 2753.69 673.861C2748.22 670.102 2747.19 662.582 2750.95 656.942C2753.86 652.67 2759.16 650.106 2764.97 650.79C2768.38 651.132 2771.46 652.157 2774.37 654.208C2779.32 657.626 2784.11 663.607 2787.35 673.007C2789.92 680.185 2790.26 688.559 2790.26 696.42C2790.26 753.5 2739.33 798.617 2681.74 798.617C2621.92 798.617 2573.22 749.911 2573.05 689.926C2573.05 680.014 2574.41 670.272 2576.98 661.044H2571.34C2557.15 661.044 2542.97 662.069 2529.47 663.949C2531.18 670.272 2532.03 676.938 2532.03 683.773C2532.03 727.011 2496.48 762.558 2453.25 762.558ZM3093.77 670.785C3083.35 670.785 3074.98 669.076 3065.92 664.804C3063.18 663.607 3060.45 662.24 3057.71 660.873C3049.68 656.601 3043.7 653.354 3036.87 653.354C3031.57 653.354 3026.61 656.259 3022.68 664.975L3021.83 664.804C3024.73 659.677 3026.1 650.277 3026.1 639.682C3026.1 625.668 3023.71 609.262 3019.6 596.103H3020.12C3034.47 638.998 3047.63 655.575 3066.26 663.778C3076 668.051 3084.2 669.931 3093.95 669.76C3111.04 669.76 3125.05 666 3136.5 655.917C3146.92 646.859 3151.88 637.973 3152.05 630.111C3152.05 619.003 3142.31 608.749 3113.43 601.4C3087.62 595.077 3068.14 592.514 3049.68 584.823C3030.54 576.791 3021.66 560.214 3021.66 542.27C3021.48 529.281 3026.1 515.78 3034.47 504.159C3046.95 487.069 3064.89 479.037 3091.21 479.037C3110.18 479.037 3120.43 485.019 3128.64 485.019C3132.91 485.019 3138.72 484.164 3142.14 479.037L3142.82 479.379C3135.64 488.778 3134.45 505.014 3144.02 544.833H3143.51C3128.98 498.178 3114.79 480.062 3091.21 480.062C3060.79 480.062 3041.14 491.854 3041.14 510.995C3041.14 516.293 3042.68 521.591 3045.58 526.376C3057.71 546.029 3104.88 552.011 3117.19 555.087C3144.19 562.094 3159.57 580.551 3159.57 606.186C3159.57 612.167 3158.72 617.978 3157.18 622.934C3152.73 639.169 3147.61 648.056 3137.52 656.771C3126.07 666.513 3113.09 670.785 3093.77 670.785Z" fill="#F3F3F3"/>
</g>
<g filter="url(#filter1_d_669_2)">
<path d="M169.254 655V654.658C187.198 650.386 199.503 652.266 199.503 639.106V386.348C199.503 373.188 187.198 374.897 169.254 370.796C77.3105 353.706 3.99512 290.132 3.99512 189.131C3.99512 86.9336 93.5459 0.288086 199.161 0.288086C446.793 0.288086 435.685 431.465 667.594 431.465C667.936 431.465 668.448 431.465 668.79 431.465C653.238 429.243 641.446 415.742 641.446 399.336C641.446 381.733 655.802 367.036 673.575 367.036C691.52 367.036 706.217 381.733 706.217 399.336C706.217 415.059 695.279 427.876 680.753 430.952C783.976 424.287 866.52 337.471 866.52 232.368C866.52 122.993 776.969 33.4424 667.594 33.4424C599.063 33.4424 543.521 77.5342 543.521 132.051C543.521 139.741 544.205 147.773 546.256 154.951C547.11 157.686 548.478 159.395 550.016 160.42C550.699 160.933 551.554 161.274 552.408 161.274C556.168 161.787 560.782 159.224 565.226 155.293C567.447 153.242 570.865 152.388 573.941 152.729C575.821 152.9 577.53 153.584 578.897 154.609C584.366 158.369 585.562 165.889 581.632 171.528C578.727 175.801 573.429 178.364 567.618 177.681C564.2 177.339 561.124 176.143 558.39 174.263C553.434 170.845 548.648 164.692 545.401 155.464C542.838 148.115 542.496 140.254 542.496 132.393C542.496 77.1924 598.551 32.417 667.594 32.417C777.481 32.417 867.545 122.48 867.545 232.368C867.545 342.427 777.481 432.49 667.594 432.49C434.659 432.49 445.597 1.31348 199.161 1.31348C94.0586 1.31348 5.02051 87.4463 5.02051 189.131C5.02051 289.106 77.9941 353.364 169.254 370.454C179.337 372.334 189.42 373.701 199.674 374.556C216.422 376.094 232.315 376.265 242.398 376.265C318.961 376.265 362.711 376.606 383.048 370.454C382.364 385.493 381.852 398.311 381.852 414.204C381.852 427.876 382.193 443.94 383.048 465.815L382.706 465.986C379.63 432.49 367.838 411.641 350.235 398.823C330.24 384.297 302.384 378.315 247.354 377.29V508.54H280.509C302.896 508.54 320.67 487.52 328.702 451.631H329.215C325.113 469.746 323.062 489.399 323.062 509.053C323.062 528.706 325.113 548.359 329.215 566.475H328.702C320.841 530.586 303.067 509.565 280.509 509.565H247.354V647.993C304.264 646.797 332.804 641.67 353.482 629.365C374.332 616.89 387.833 595.527 391.251 559.126L391.593 559.297C389.713 606.465 390.226 626.46 391.593 654.658C374.845 649.531 340.836 649.019 290.592 649.019H247.354C237.955 649.019 219.498 649.019 199.674 650.898C189.42 651.753 179.337 652.949 169.254 655ZM619.229 655V654.658C637.174 650.557 649.479 652.437 649.479 639.106V492.305C649.479 479.146 637.345 480 610.343 475.898V475.557C622.818 477.095 633.927 477.778 643.668 477.778C669.303 477.778 686.051 472.822 697.159 464.277H697.33V639.106C697.33 652.437 709.635 650.557 727.579 654.658V655C709.122 651.753 691.007 650.044 672.892 650.044C654.776 650.044 636.832 651.753 619.229 655ZM433.634 655V654.658C451.578 650.557 463.883 652.437 463.883 639.106V492.305C463.883 479.146 451.92 480.171 424.918 475.898V475.557C437.394 477.095 448.502 477.778 458.243 477.778C483.878 477.778 500.626 472.993 511.734 464.277V514.521C512.076 513.667 512.418 512.812 512.76 511.787C515.665 503.755 519.596 495.21 525.064 487.861C531.388 479.316 539.762 472.31 551.041 469.575C553.946 468.892 557.022 468.55 560.099 468.55C579.581 468.55 593.937 480.684 593.937 496.919C593.937 509.053 584.195 518.794 572.403 518.794C560.27 518.794 550.528 509.053 550.528 496.919C550.528 491.963 551.554 487.178 552.75 483.076C553.775 478.975 554.972 475.557 554.972 473.335C555.143 471.113 554.117 470.088 550.699 470.942C539.762 473.677 531.729 480.513 525.748 488.716C520.279 495.894 516.52 504.268 513.614 511.958C512.931 514.18 512.247 515.889 511.734 517.256V639.106C511.734 652.437 523.868 650.557 541.983 654.658V655C523.526 651.582 505.24 650.044 487.125 650.044C469.01 650.044 451.236 651.753 433.634 655ZM878.312 834.272C790.982 834.272 719.547 762.837 719.547 675.508C719.547 633.125 736.466 594.331 763.98 565.791V563.228C763.98 507.515 800.553 468.037 860.88 468.037C863.272 468.037 865.836 468.037 868.399 468.208C881.9 468.892 897.794 474.189 904.972 480.342C911.466 485.981 915.909 494.868 915.909 502.9C915.909 510.591 910.611 516.743 902.75 518.794C931.461 523.237 957.608 535.542 979.142 553.145C988.883 547.847 1001.02 545.112 1015.71 545.112C1017.42 545.112 1026.14 544.941 1028.53 544.941C1052.63 544.941 1067.5 535.542 1067.5 520.161V518.965C1067.5 483.076 1060.15 469.062 1041.18 469.062C1022.21 469.062 1017.25 474.702 1017.08 495.381C1017.08 499.482 1017.94 503.755 1017.94 507.856C1017.94 520.161 1009.9 529.048 996.061 529.048C984.439 529.048 975.553 521.187 975.553 510.42C975.553 488.374 1004.78 468.037 1041.18 468.037C1086.29 468.037 1115.35 490.083 1115.35 524.092V578.608C1120.99 578.608 1123.72 580.317 1123.72 583.906C1123.72 586.982 1120.3 588.862 1113.64 590.059C1033.66 607.148 1053.82 834.272 878.312 834.272ZM861.905 468.892C830.802 468.892 816.617 482.563 812.857 531.099C832.853 522.041 855.069 516.914 878.312 516.914C881.9 516.914 885.489 517.085 889.078 517.256C883.268 514.18 879.508 507.856 879.508 499.995C879.508 494.185 880.191 488.545 880.191 483.589C880.191 473.677 876.944 469.404 868.399 469.062C866.178 468.892 863.956 468.892 861.905 468.892ZM857.291 660.981C804.142 660.981 768.766 627.314 764.493 574.678C777.481 562.202 791.666 552.29 806.705 544.941C809.952 543.403 812.174 543.574 812.003 547.334C811.832 552.29 811.832 557.588 811.832 563.228C811.832 635.347 822.257 659.956 857.291 659.956C888.053 659.956 918.814 633.467 918.814 606.807H919.84C919.84 633.979 888.565 660.981 857.291 660.981ZM1011.44 659.785C979.483 659.785 951.969 639.619 951.969 603.901C951.969 586.47 957.267 571.602 968.033 561.177C969.913 559.468 973.673 556.221 978.116 560.493L1001.87 583.906C1000.67 590.059 999.991 596.724 999.991 603.901C999.991 635.688 1014.35 655.342 1030.41 655.342C1031.61 655.342 1033.49 654.658 1034.51 654.146C1025.11 584.419 969.4 528.877 899.503 519.307C898.99 519.478 898.478 519.478 897.794 519.478C895.743 519.478 893.692 519.136 891.812 518.452C887.369 518.11 882.926 517.939 878.312 517.939C791.495 517.939 720.572 588.862 720.572 675.508C720.572 762.153 791.495 833.247 878.312 833.247C1053.82 833.247 1031.78 606.807 1113.64 589.717C1119.96 588.691 1123.21 586.641 1123.21 583.906C1123.21 580.659 1120.65 579.121 1115.35 579.121C1094.33 579.121 1084.76 585.615 1076.38 587.837C1073.14 588.691 1067.5 588.691 1067.5 580.488V526.997C1063.74 539.131 1049.38 545.967 1028.53 545.967C1018.79 545.967 1008.19 558.955 1003.24 577.925C1024.43 604.756 1037.08 638.765 1037.08 675.508C1037.08 694.648 1029.9 706.611 1021.01 712.593C1018.28 714.644 1015.2 715.669 1011.78 716.011C1005.97 716.694 1000.67 714.302 997.77 710.029C993.839 704.219 995.035 696.87 1000.5 693.11C1002.04 692.085 1003.75 691.401 1005.46 691.23C1008.71 690.718 1011.95 691.743 1014.35 693.794C1018.79 697.725 1023.23 700.117 1026.99 699.775C1027.85 699.604 1028.7 699.434 1029.39 698.921C1033.66 695.845 1036.05 686.274 1036.05 675.508C1036.05 668.672 1035.54 661.836 1034.68 655.171C1027.51 658.76 1018.79 659.785 1011.44 659.785ZM1315.13 659.443C1298.55 659.443 1281.8 653.633 1270.35 640.645C1264.2 633.638 1257.88 626.118 1257.88 614.326C1257.88 601.68 1266.93 592.28 1279.07 592.28C1289.32 592.28 1297.7 602.021 1297.7 611.592C1297.7 618.599 1293.59 625.605 1284.71 631.074C1281.12 633.296 1277.7 635.518 1277.7 639.277C1277.7 649.702 1294.79 658.418 1315.13 658.418C1328.97 658.418 1344.52 654.658 1356.31 649.189V386.348C1356.31 373.188 1344.01 374.897 1326.07 370.796V370.454C1344.01 373.872 1361.95 375.41 1380.24 375.41C1398.53 375.41 1416.47 373.872 1434.42 370.454V370.796C1416.47 374.897 1404.17 373.188 1404.17 386.348V590.229C1403.82 625.776 1360.42 659.443 1315.13 659.443ZM1462.1 644.575C1452.53 644.575 1444.84 636.885 1444.84 627.144C1444.84 617.744 1452.53 610.054 1462.1 610.054C1471.5 610.054 1479.19 617.744 1479.19 627.144C1479.19 636.885 1471.5 644.575 1462.1 644.575Z" fill="#F3F3F3"/>
</g>
<defs>
<filter id="filter0_d_669_2" x="1579.54" y="11.2881" width="1584.03" height="841.984" filterUnits="userSpaceOnUse" color-interpolation-filters="sRGB">
<feFlood flood-opacity="0" result="BackgroundImageFix"/>
<feColorMatrix in="SourceAlpha" type="matrix" values="0 0 0 0 0 0 0 0 0 0 0 0 0 0 0 0 0 0 127 0" result="hardAlpha"/>
<feOffset dy="4"/>
<feGaussianBlur stdDeviation="2"/>
<feComposite in2="hardAlpha" operator="out"/>
<feColorMatrix type="matrix" values="0 0 0 0 0 0 0 0 0 0 0 0 0 0 0 0 0 0 0.5 0"/>
<feBlend mode="normal" in2="BackgroundImageFix" result="effect1_dropShadow_669_2"/>
<feBlend mode="normal" in="SourceGraphic" in2="effect1_dropShadow_669_2" result="shape"/>
</filter>
<filter id="filter1_d_669_2" x="-0.00488281" y="0.288086" width="1483.2" height="841.984" filterUnits="userSpaceOnUse" color-interpolation-filters="sRGB">
<feFlood flood-opacity="0" result="BackgroundImageFix"/>
<feColorMatrix in="SourceAlpha" type="matrix" values="0 0 0 0 0 0 0 0 0 0 0 0 0 0 0 0 0 0 127 0" result="hardAlpha"/>
<feOffset dy="4"/>
<feGaussianBlur stdDeviation="2"/>
<feComposite in2="hardAlpha" operator="out"/>
<feColorMatrix type="matrix" values="0 0 0 0 0 0 0 0 0 0 0 0 0 0 0 0 0 0 0.5 0"/>
<feBlend mode="normal" in2="BackgroundImageFix" result="effect1_dropShadow_669_2"/>
<feBlend mode="normal" in="SourceGraphic" in2="effect1_dropShadow_669_2" result="shape"/>
</filter>
</defs>
</svg>
